<svg xmlns="http://www.w3.org/2000/svg" width="791.2" height="128.6" viewBox="0 0 791.2 128.6">
  <path id="Features" d="M-358-22h14.2q6.4,0,9.1-2.7t2.7-9.1v-61q0-6.4-2.7-9.1t-9.1-2.7H-358q-6.4,0-9,2.7t-2.6,9.1v61q0,6.4,2.6,9.1T-358-22Zm18.4,22H-362q-15.8,0-24.4-8.4T-395-32.6V-96q0-15.8,8.6-24.2t24.4-8.4h22.4q15.8,0,24.4,8.4t8.6,24.2v63.4q0,15.8-8.6,24.2T-339.6,0Zm122.8-128.6H-200q4.4,0,4.4,4v92q0,15.6-8.7,24.1T-228.6,0h-22Q-266.4,0-275-8.4t-8.6-24.2v-91.8q0-4.2,4.2-4.2h17q4.2,0,4.2,4.2v90.6q0,6.4,2.7,9.1t8.9,2.7h13.8q6.4,0,9.1-2.7t2.7-9.1v-90.6Q-221-128.6-216.8-128.6ZM-149.4,0h-17q-4.2,0-4.2-4.2V-124.4q0-4.2,4.2-4.2h47.6q15.6,0,24.4,8.6t8.8,24.2v15.6q0,22.6-17.8,30v.8L-82-4.8Q-80.2,0-85.4,0h-16.2a12.394,12.394,0,0,1-5.2-.8,5.946,5.946,0,0,1-2.6-3.4l-20-43.2h-13.4q-2.4,0-2.4,2.2v41Q-145.2,0-149.4,0Zm6.4-67.8h19.6q6.4,0,9.4-2.7t3-8.7V-94.8q0-6.2-3-9t-9.4-2.8H-143a1.945,1.945,0,0,0-2.2,2.2V-70A1.945,1.945,0,0,0-143-67.8ZM35.6,0H13.8Q-2,0-10.6-8.4t-8.6-24.2V-96q0-15.8,8.6-24.2t24.4-8.4H35.6q15.6,0,24.3,8.5T68.6-96v9.4q0,4.4-4.4,4.4H47.4q-4.2,0-4.2-4.4v-8.2q0-6.4-2.7-9.1t-9.1-2.7H17.8q-6.2,0-8.9,2.7T6.2-94.8v61q0,6.4,2.7,9.1T17.8-22H31.4q6.4,0,9.1-2.7t2.7-9.1V-42q0-4.4,4.2-4.4H64.2q4.4,0,4.4,4.4v9.4q0,15.6-8.7,24.1T35.6,0Zm68.2,0H84.6Q81,0,82.2-4.2l31.6-120.2a5.742,5.742,0,0,1,6-4.2h26.6q5,0,6,4.2L184-4.2Q185.2,0,181.6,0H162.4a3.931,3.931,0,0,1-3-.9,6.829,6.829,0,0,1-1.2-3.3l-5.6-22h-39L108-4.2a6.15,6.15,0,0,1-1.3,3.3A3.977,3.977,0,0,1,103.8,0Zm29-104.4L118.4-46.6H148l-14.4-57.8ZM223,0H206q-4.2,0-4.2-4.2V-124.4q0-4.2,4.2-4.2h47.6q15.6,0,24.4,8.6t8.8,24.2v15.6q0,22.6-17.8,30v.8L290.4-4.8Q292.2,0,287,0H270.8a12.394,12.394,0,0,1-5.2-.8A5.946,5.946,0,0,1,263-4.2L243-47.4H229.6q-2.4,0-2.4,2.2v41Q227.2,0,223,0Zm6.4-67.8H249q6.4,0,9.4-2.7t3-8.7V-94.8q0-6.2-3-9t-9.4-2.8H229.4a1.945,1.945,0,0,0-2.2,2.2V-70A1.945,1.945,0,0,0,229.4-67.8Zm78.6,35v-4q0-4.2,4.2-4.2h17q4.2,0,4.2,4.2v1.6q0,7.6,3,10.4t11,2.8h9.4q7.8,0,10.9-3t3.1-11.2v-2.4a10.027,10.027,0,0,0-4.7-8.9,24.77,24.77,0,0,0-11.7-3.7,126.444,126.444,0,0,1-15.1-2.3,97.656,97.656,0,0,1-15.1-4.4q-7-2.7-11.7-10.6t-4.7-20.3v-7q0-15.6,8.8-24.2t24.4-8.6h20q15.8,0,24.6,8.6t8.8,24.2V-92q0,4.2-4.2,4.2h-17q-4.2,0-4.2-4.2v-1.2q0-7.8-3-10.6t-11-2.8h-7.8q-8.2,0-11.1,3.1t-2.9,12.1v3.8q0,9.4,16.4,10.8A101.532,101.532,0,0,1,379.8-70q7,3,11.7,10.7t4.7,19.7v6.8q0,15.6-8.8,24.2T363,0H341.2q-15.6,0-24.4-8.6T308-32.8Z" transform="translate(395 128.6)" fill="#353535" opacity="0.65"/>
</svg>
