<svg xmlns="http://www.w3.org/2000/svg" width="792.8" height="128.6" viewBox="0 0 792.8 128.6">
  <path id="Features" d="M-360.4-22h14.2q6.4,0,9.1-2.7t2.7-9.1v-61q0-6.4-2.7-9.1t-9.1-2.7h-14.2q-6.4,0-9,2.7t-2.6,9.1v61q0,6.4,2.6,9.1T-360.4-22ZM-342,0h-22.4q-15.8,0-24.4-8.4t-8.6-24.2V-96q0-15.8,8.6-24.2t24.4-8.4H-342q15.8,0,24.4,8.4T-309-96v63.4q0,15.8-8.6,24.2T-342,0Zm122.8-128.6h16.8q4.4,0,4.4,4v92q0,15.6-8.7,24.1T-231,0h-22q-15.8,0-24.4-8.4T-286-32.6v-91.8q0-4.2,4.2-4.2h17q4.2,0,4.2,4.2v90.6q0,6.4,2.7,9.1T-249-22h13.8q6.4,0,9.1-2.7t2.7-9.1v-90.6Q-223.4-128.6-219.2-128.6ZM-151.8,0h-17Q-173,0-173-4.2V-124.4q0-4.2,4.2-4.2h47.6q15.6,0,24.4,8.6T-88-95.8v15.6q0,22.6-17.8,30v.8L-84.4-4.8Q-82.6,0-87.8,0H-104a12.394,12.394,0,0,1-5.2-.8,5.946,5.946,0,0,1-2.6-3.4l-20-43.2h-13.4q-2.4,0-2.4,2.2v41Q-147.6,0-151.8,0Zm6.4-67.8h19.6q6.4,0,9.4-2.7t3-8.7V-94.8q0-6.2-3-9t-9.4-2.8h-19.6a1.945,1.945,0,0,0-2.2,2.2V-70A1.945,1.945,0,0,0-145.4-67.8ZM20.2,0H3.4Q-1,0-1-4.2V-104.4a1.945,1.945,0,0,0-2.2-2.2H-26q-4.2,0-4.2-4.2v-13.6q0-4.2,4.2-4.2H49.6q4.2,0,4.2,4.2v13.6q0,4.2-4.2,4.2H26.8q-2.4,0-2.4,2.2V-4.2Q24.4,0,20.2,0ZM138.6,0H73.2Q69,0,69-4.2V-124.4q0-4.2,4.2-4.2h65.4q4,0,4,4.2v13.6q0,4.2-4,4.2H96.8q-2.4,0-2.4,2.2v26q0,2.2,2.4,2.2H131q4.2,0,4.2,4.2v13.6q0,4.2-4.2,4.2H96.8q-2.4,0-2.4,2.2v27.8q0,2.2,2.4,2.2h41.8q4,0,4,4.2V-4.2Q142.6,0,138.6,0Zm39.6,0H159q-3.6,0-2.4-4.2l31.6-120.2a5.742,5.742,0,0,1,6-4.2h26.6q5,0,6,4.2L258.4-4.2Q259.6,0,256,0H236.8a3.931,3.931,0,0,1-3-.9,6.829,6.829,0,0,1-1.2-3.3l-5.6-22H188l-5.6,22a6.151,6.151,0,0,1-1.3,3.3A3.977,3.977,0,0,1,178.2,0Zm29-104.4L192.8-46.6h29.6L208-104.4Zm154.4-24.2h29.6q4.2,0,4.2,4.2V-4.2q0,4.2-4.2,4.2H374.8q-4.2,0-4.2-4.2V-99h-.8L349.4-32q-1.2,4-5,4H327.6q-3.8,0-5-4L301.8-99.2H301v95a5.071,5.071,0,0,1-.8,3.3q-.8.9-3.4.9H280.4q-4.2,0-4.2-4.2V-124.4q0-4.2,4.2-4.2h29.8a3.767,3.767,0,0,1,3.8,2.8l21.2,70.6h1.2l21.4-70.6Q358.4-128.6,361.6-128.6Z" transform="translate(397.4 128.6)" fill="#353535" opacity="0.65"/>
</svg>
