<svg xmlns="http://www.w3.org/2000/svg" width="101.304" height="43.238" viewBox="0 0 101.304 43.238">
  <g id="Group_1842" data-name="Group 1842" transform="translate(-42.715 370.21)">
    <path id="Path_9272" data-name="Path 9272" d="M91.2-331.878H126.18l3.737-3.737h3.672l9.9-13.559,3.171-.411,2.657-4.036-60.1-.23s-4.659-7.676-17.376-7.807c0,0-18.29,1.908-19.347,19.626,0,0,.889,17.967,19.758,20.293C72.249-321.74,83.6-320.513,91.2-331.878Z" transform="translate(-7.936 -6.943)" fill="#fff"/>
    <path id="Path_9273" data-name="Path 9273" d="M448-218.562l-.119.137.109-.145Z" transform="translate(-328.928 -123.106)" fill="#fff"/>
    <path id="Path_9274" data-name="Path 9274" d="M437.868-325.96l-4.591,6.247h-2.74l-10.25,13.656h-3.963l-3.284,4.375h-8.366L407-303.9l.192-.183.2-.194h4.7l1.366-1.78.928-1.208.058-.075.009-.013h3.876l3.013-3.938.07-.09.019-.026.032-.043.039-.051,6.277-8.21.783-1.024.2-.26h2.012l.009-.013h.689l1.786-2.356.309-.4.724-.956.935-1.234Z" transform="translate(-293.849 -35.924)" fill="#101f4a"/>
    <path id="Path_9275" data-name="Path 9275" d="M448-218.562l-.119.137.109-.145Z" transform="translate(-328.928 -123.106)" fill="#08090a"/>
    <path id="Path_9276" data-name="Path 9276" d="M444.1-210.728" transform="translate(-325.852 -129.472)" fill="none" stroke="#08090a" stroke-miterlimit="10" stroke-width="1"/>
    <path id="Path_9277" data-name="Path 9277" d="M448-218.562l-.119.137.109-.145Z" transform="translate(-328.928 -123.106)" fill="#08090a"/>
    <path id="Path_9278" data-name="Path 9278" d="M152.016-353.706l-.724.956-1.012.4H91.607a18.823,18.823,0,0,0-14.8-7.032c-10.242,0-18.546,7.918-18.546,17.688S66.564-324,76.806-324a18.851,18.851,0,0,0,14.5-6.663,17.623,17.623,0,0,0,1.806-2.595h32.008l-.2.194h-.192l-3.592,1.409-26.3-.224s-7.207,11.689-17.649,10.312-19.762-2.5-20.21-20.87,17.935-19.2,17.935-19.2,10.923-.866,17.936,7.783l50.8.145Z" transform="translate(-11.574 -6.943)" fill="#fff"/>
    <path id="Path_9279" data-name="Path 9279" d="M141.377-361.883l-.935,1.234-.724.956-.309.4H80.033a18.823,18.823,0,0,0-14.8-7.032c-10.242,0-18.546,7.918-18.546,17.688s8.3,17.69,18.546,17.69a18.851,18.851,0,0,0,14.5-6.663,17.623,17.623,0,0,0,1.806-2.595h32.008l-.2.194-.192.183-2.326,2.219H83.776a22.138,22.138,0,0,1-19,10.634,21.842,21.842,0,0,1-22.059-21.619A21.841,21.841,0,0,1,64.774-370.21a22.176,22.176,0,0,1,17.4,8.327Z" transform="translate(0 0)" fill="#101f4a"/>
    <g id="Group_1833" data-name="Group 1833" transform="translate(74.881 -355.29)">
      <path id="Path_9280" data-name="Path 9280" d="M214.06-284.8a1.626,1.626,0,0,1,.626-.772,1.69,1.69,0,0,1,.951-.285h4.056a.417.417,0,0,0,.227-.081.418.418,0,0,0,.163-.179l1.121-2.755h-2.154l.4-.992a1.727,1.727,0,0,1,.256-.431,1.647,1.647,0,0,1,.366-.333,1.787,1.787,0,0,1,.451-.215,1.663,1.663,0,0,1,.5-.077h3.161q-.7,1.715-1.243,3.064-.236.569-.459,1.122l-.4.984q-.175.431-.394.967a1.686,1.686,0,0,1-.622.711,1.641,1.641,0,0,1-.906.264h-6.51Z" transform="translate(-213.654 290.922)" fill="#080808"/>
    </g>
    <g id="Group_1834" data-name="Group 1834" transform="translate(83.96 -354.576)">
      <path id="Path_9281" data-name="Path 9281" d="M263.688-286.976a.939.939,0,0,1,.519-.151h.586l-1.187,2.9h1.759a.221.221,0,0,0,.128-.04.231.231,0,0,0,.086-.109l1.01-2.471a.435.435,0,0,1,.165-.2.434.434,0,0,1,.249-.077h.931l-1.41,3.461a.944.944,0,0,1-.358.444.957.957,0,0,1-.544.165H261.9q.4-.981.712-1.749.135-.33.263-.647t.23-.563q.1-.246.223-.554A.963.963,0,0,1,263.688-286.976Z" transform="translate(-261.904 287.127)" fill="#080808"/>
      <path id="Path_9282" data-name="Path 9282" d="M289.591-286.569a.962.962,0,0,1,.356-.407.939.939,0,0,1,.519-.151h3.727l-.233.568a.948.948,0,0,1-.358.44.956.956,0,0,1-.544.165h-2.322a.192.192,0,0,0-.114.035.578.578,0,0,0-.091.081q-.014.028-.084.2c-.022.05-.048.113-.079.191s-.07.173-.116.286-.1.246-.165.4-.136.329-.216.53h1.605a.45.45,0,0,0,.251-.077.435.435,0,0,0,.167-.2.488.488,0,0,1,.021-.053c.008-.017.015-.033.021-.049h-.749l.161-.4q.067-.168.114-.279a.435.435,0,0,1,.165-.207.436.436,0,0,1,.249-.077h1.679l-.777,1.908a.949.949,0,0,1-.356.444.953.953,0,0,1-.547.165h-3.713q.4-.981.712-1.754Z" transform="translate(-283.222 287.127)" fill="#080808"/>
      <path id="Path_9283" data-name="Path 9283" d="M315.849-286.569a.962.962,0,0,1,.356-.407.939.939,0,0,1,.519-.151h3.727l-.233.568a.948.948,0,0,1-.358.44.957.957,0,0,1-.544.165h-2.322a.192.192,0,0,0-.114.035.567.567,0,0,0-.091.081q-.014.028-.084.2c-.022.05-.048.113-.079.191s-.07.173-.116.286-.1.246-.165.4-.136.329-.216.53h1.605a.449.449,0,0,0,.251-.077.436.436,0,0,0,.168-.2.527.527,0,0,1,.021-.053l.021-.049h-.749l.161-.4q.067-.168.114-.279a.435.435,0,0,1,.165-.207.436.436,0,0,1,.249-.077h1.68l-.777,1.908a.948.948,0,0,1-.356.444.953.953,0,0,1-.547.165h-3.713q.4-.981.712-1.754Z" transform="translate(-304.539 287.127)" fill="#080808"/>
      <path id="Path_9284" data-name="Path 9284" d="M340.333-283.056q.121-.3.221-.549l.228-.561.263-.644.263-.644q.128-.314.228-.563t.226-.551a.963.963,0,0,1,.356-.407.938.938,0,0,1,.519-.151h3.727l-.233.568a.948.948,0,0,1-.358.44.956.956,0,0,1-.544.165h-2.322a.227.227,0,0,0-.224.149l-.1.233h1.987l-.279.679a.437.437,0,0,1-.165.207.444.444,0,0,1-.254.077h-1.517a.227.227,0,0,0-.223.149l-.093.233h3.136l-.228.563a.944.944,0,0,1-.358.444.957.957,0,0,1-.544.165Z" transform="translate(-325.575 287.127)" fill="#080808"/>
      <path id="Path_9285" data-name="Path 9285" d="M367.988-286.518a.944.944,0,0,1,.358-.444.959.959,0,0,1,.544-.165h3.731l-.935,2.3a.943.943,0,0,1-.358.444.956.956,0,0,1-.544.165h-.242l.474,1.163H369.76l-.47-1.163h-.972l-.363.884a.439.439,0,0,1-.165.2.435.435,0,0,1-.249.077h-.949Zm.81,1.116h1.754a.174.174,0,0,0,.1-.028.155.155,0,0,0,.063-.075l.181-.447h-1.754a.165.165,0,0,0-.163.107Z" transform="translate(-346.893 287.127)" fill="#080808"/>
      <path id="Path_9286" data-name="Path 9286" d="M392.851-283.056l1.41-3.471a.993.993,0,0,1,.147-.247.941.941,0,0,1,.209-.191.974.974,0,0,1,.256-.121.959.959,0,0,1,.281-.042h3.727l-1.41,3.461a.944.944,0,0,1-.358.444.956.956,0,0,1-.544.165h-.591l1.177-2.9h-1.8a.117.117,0,0,0-.116.079l-1.028,2.54a.443.443,0,0,1-.163.2.424.424,0,0,1-.246.077h-.954Z" transform="translate(-368.211 287.127)" fill="#080808"/>
      <path id="Path_9287" data-name="Path 9287" d="M418.392-283.056l1.414-3.471a.944.944,0,0,1,.354-.437.946.946,0,0,1,.54-.163h3.722l-1.405,3.461a.945.945,0,0,1-.358.444.955.955,0,0,1-.544.165h-.591l.633-1.554h-1.884l-.521,1.275a.436.436,0,0,1-.165.2.442.442,0,0,1-.253.077Zm4.066-2.517a.117.117,0,0,0,.116-.079l.126-.3h-1.8a.117.117,0,0,0-.116.079l-.126.3Z" transform="translate(-388.945 287.127)" fill="#080808"/>
      <path id="Path_9288" data-name="Path 9288" d="M446.089-286.976a.939.939,0,0,1,.519-.151h.586l-1.186,2.9h1.759a.222.222,0,0,0,.128-.04.234.234,0,0,0,.086-.109l1.01-2.471a.438.438,0,0,1,.165-.2.435.435,0,0,1,.249-.077h.931l-1.41,3.461a.944.944,0,0,1-.358.444.956.956,0,0,1-.544.165H444.3q.4-.981.712-1.749.135-.33.263-.647t.23-.563q.1-.246.224-.554A.962.962,0,0,1,446.089-286.976Z" transform="translate(-409.982 287.127)" fill="#080808"/>
      <path id="Path_9289" data-name="Path 9289" d="M476.57-285.95l.228-.568a.945.945,0,0,1,.358-.444.959.959,0,0,1,.544-.165h3.727l-.233.568a.947.947,0,0,1-.356.444.954.954,0,0,1-.547.165h-.81l-.931,2.284a.946.946,0,0,1-.358.444.957.957,0,0,1-.544.165h-.6l1.177-2.894Z" transform="translate(-436.176 287.127)" fill="#080808"/>
    </g>
    <g id="Group_1835" data-name="Group 1835" transform="translate(86.791 -349.531)">
      <path id="Path_9290" data-name="Path 9290" d="M276.946-256.395l1.361-3.341a.909.909,0,0,1,.341-.421.909.909,0,0,1,.519-.157h3.584l-1.353,3.332a.909.909,0,0,1-.345.428.923.923,0,0,1-.524.159h-.569l.609-1.5h-1.814l-.5,1.227a.423.423,0,0,1-.159.195.429.429,0,0,1-.244.074Zm3.915-2.423a.112.112,0,0,0,.112-.076l.121-.291h-1.729a.112.112,0,0,0-.112.076l-.121.291Z" transform="translate(-276.946 260.314)" fill="#e4001b"/>
      <path id="Path_9291" data-name="Path 9291" d="M301.557-256.395l.213-.528.22-.54.253-.62.253-.62q.123-.3.22-.542t.217-.531a.928.928,0,0,1,.343-.392.9.9,0,0,1,.5-.145h3.588l-.224.546a.911.911,0,0,1-.345.423.923.923,0,0,1-.524.159h-2.235a.218.218,0,0,0-.215.143l-.618,1.518h3.019l-.219.542a.909.909,0,0,1-.345.428.922.922,0,0,1-.524.159Z" transform="translate(-296.926 260.314)" fill="#e4001b"/>
      <path id="Path_9292" data-name="Path 9292" d="M327.837-259.727a.91.91,0,0,1,.345-.428.922.922,0,0,1,.524-.159h.573l-1.353,3.332a.91.91,0,0,1-.345.428.93.93,0,0,1-.529.159h-.573Z" transform="translate(-317.159 260.314)" fill="#e4001b"/>
      <path id="Path_9293" data-name="Path 9293" d="M335.453-256.395l1.357-3.341a.941.941,0,0,1,.141-.237.915.915,0,0,1,.2-.184.924.924,0,0,1,.246-.116.925.925,0,0,1,.271-.04h3.587l-1.357,3.332a.909.909,0,0,1-.345.428.922.922,0,0,1-.524.159h-.569l1.133-2.79h-1.729a.113.113,0,0,0-.112.076l-.99,2.445a.43.43,0,0,1-.157.195.411.411,0,0,1-.237.074h-.918Z" transform="translate(-324.444 260.314)" fill="#e4001b"/>
      <path id="Path_9294" data-name="Path 9294" d="M361.773-259.777a.93.93,0,0,1,.343-.392.905.905,0,0,1,.5-.145H366.2l-.224.546a.914.914,0,0,1-.345.423.923.923,0,0,1-.524.159h-2.235a.185.185,0,0,0-.11.033.528.528,0,0,0-.087.078q-.013.027-.081.2-.031.072-.076.184c-.03.075-.067.167-.112.275s-.1.237-.159.383-.13.316-.208.511h1.545a.43.43,0,0,0,.242-.074.421.421,0,0,0,.161-.195.483.483,0,0,1,.02-.052l.02-.047h-.721l.154-.385c.043-.107.08-.2.11-.269a.418.418,0,0,1,.159-.2.42.42,0,0,1,.24-.074h1.617l-.748,1.836a.913.913,0,0,1-.343.428.918.918,0,0,1-.526.159H360.4q.386-.945.685-1.688Z" transform="translate(-344.695 260.314)" fill="#e4001b"/>
    </g>
    <g id="Group_1836" data-name="Group 1836" transform="translate(78.974 -349.681)">
      <path id="Path_9295" data-name="Path 9295" d="M237.507-260.2a1.423,1.423,0,0,1,.539-.669,1.443,1.443,0,0,1,.819-.249h5.615l-1.407,3.459a1.421,1.421,0,0,1-.539.669,1.441,1.441,0,0,1-.819.249h-.364l.714,1.751h-1.89l-.707-1.751H238l-.546,1.33a.662.662,0,0,1-.249.3.658.658,0,0,1-.375.116h-1.428Zm1.218,1.68h2.64a.264.264,0,0,0,.143-.042.23.23,0,0,0,.094-.112l.273-.672h-2.64a.248.248,0,0,0-.245.161Z" transform="translate(-235.406 261.114)" fill="#e4001b"/>
    </g>
    <path id="Path_9296" data-name="Path 9296" d="M162.223-331.168l-.2.26-.783,1.024H105.26a14.077,14.077,0,0,0-.8-1.283,14.833,14.833,0,0,0-4.279-4.07c-.115-.075-.231-.147-.35-.213-.233-.141-.472-.275-.717-.4-.173-.092-.348-.179-.527-.26a14.958,14.958,0,0,0-6.381-1.419,14.956,14.956,0,0,0-6.691,1.567c-.158.077-.312.158-.467.243q-.641.347-1.242.755a14.558,14.558,0,0,0-1.633,1.28c-.087.077-.171.154-.254.235-.128.12-.252.243-.374.367a14.553,14.553,0,0,0-4.215,10.248,14.5,14.5,0,0,0,2.508,8.169,14.682,14.682,0,0,0,2.006,2.375A14.91,14.91,0,0,0,92.2-308.138a14.91,14.91,0,0,0,10.524-4.311,14.274,14.274,0,0,0,1.007-1.1l0,0a14.73,14.73,0,0,0,1.759-2.68,14.052,14.052,0,0,0,.578-1.283h41.83l-.058.075-.928,1.208H106.577A15.858,15.858,0,0,1,92.2-307.178a15.754,15.754,0,0,1-15.85-15.656,15.583,15.583,0,0,1,6.789-12.846c.1-.072.207-.143.312-.209.077-.053.154-.1.233-.151.151-.1.3-.188.455-.279A15.932,15.932,0,0,1,92.2-338.49a15.9,15.9,0,0,1,7.822,2.038c.237.132.47.271.7.418a15.788,15.788,0,0,1,4.9,4.866Z" transform="translate(-27.31 -25.751)" fill="#d1d2d2"/>
    <g id="Group_1841" data-name="Group 1841" transform="translate(54.147 -361.646)">
      <g id="Group_1837" data-name="Group 1837" transform="translate(5.673 6.596)">
        <line id="Line_6356" data-name="Line 6356" y1="3.807" x2="2.753" transform="translate(0.091 0.066)" fill="none"/>
        <rect id="Rectangle_2221" data-name="Rectangle 2221" width="4.698" height="0.225" transform="matrix(0.586, -0.81, 0.81, 0.586, 0, 3.807)" fill="#1a1818"/>
      </g>
      <g id="Group_1838" data-name="Group 1838" transform="translate(13.392 6.615)">
        <line id="Line_6357" data-name="Line 6357" x1="2.753" y1="3.807" transform="translate(0.091 0.066)" fill="none"/>
        <rect id="Rectangle_2222" data-name="Rectangle 2222" width="0.225" height="4.698" transform="matrix(0.81, -0.586, 0.586, 0.81, 0, 0.132)" fill="#1a1818"/>
      </g>
      <path id="Path_9297" data-name="Path 9297" d="M151.07-245.48h-.257l.754,3.388h.937Z" transform="translate(-141.904 260.387)" fill="#1a1818"/>
      <rect id="Rectangle_2223" data-name="Rectangle 2223" width="0.001" height="0.33" transform="translate(3.788 19.924)" fill="#fff"/>
      <rect id="Rectangle_2224" data-name="Rectangle 2224" width="0.001" height="0.721" transform="translate(3.788 21.152)" fill="#fff"/>
      <rect id="Rectangle_2225" data-name="Rectangle 2225" width="3.789" height="8.636" rx="1.894" transform="translate(0 17.474)" fill="#1a1818"/>
      <path id="Path_9298" data-name="Path 9298" d="M136.773-267.688" transform="translate(-130.506 278.416)" fill="#1a1818"/>
      <path id="Path_9299" data-name="Path 9299" d="M135.649-268.43" transform="translate(-129.594 279.018)" fill="none" stroke="#e5003c" stroke-miterlimit="10" stroke-width="1"/>
      <path id="Path_9300" data-name="Path 9300" d="M142.764-266.393l0,.007h0Z" transform="translate(-135.366 277.364)" fill="#1a1818"/>
      <path id="Path_9301" data-name="Path 9301" d="M152.5-242.089h-.937l-.754-3.388h.257Z" transform="translate(-141.903 260.384)" fill="#b5091b"/>
      <rect id="Rectangle_2226" data-name="Rectangle 2226" width="3.789" height="8.636" rx="1.895" transform="translate(21.981 26.11) rotate(180)" fill="#1a1818"/>
      <path id="Path_9302" data-name="Path 9302" d="M165.378-245.477l-1.435,3.388,1.434-3.388Z" transform="translate(-152.564 260.384)" fill="#fff"/>
      <path id="Path_9303" data-name="Path 9303" d="M186.97-267.688" transform="translate(-171.258 278.416)" fill="#1a1818"/>
      <path id="Path_9304" data-name="Path 9304" d="M188.094-268.43" transform="translate(-172.17 279.018)" fill="none" stroke="#e5003c" stroke-miterlimit="10" stroke-width="1"/>
      <path id="Path_9305" data-name="Path 9305" d="M180.52-267.067h0l-.108-.165Z" transform="translate(-165.933 278.046)" fill="#1a1818"/>
      <path id="Path_9306" data-name="Path 9306" d="M165.635-245.477l-.754,3.388h-.937l1.434-3.388Z" transform="translate(-152.564 260.384)" fill="#b5091b"/>
      <path id="Path_9307" data-name="Path 9307" d="M126.646-225.743,123.6-223.6h0v-.9h0l2.609-1.723Z" transform="translate(-119.811 244.747)" fill="#b5091b"/>
      <path id="Path_9308" data-name="Path 9308" d="M187-224.492v.9l-3.046-2.148.437-.472Z" transform="translate(-168.81 244.747)" fill="#b5091b"/>
      <path id="Path_9309" data-name="Path 9309" d="M114.762-317.944l-.412.569-.026-.013-.035-.019-.058-.031-4.278-2.255v-1.2l.639-.355v-1.243l-.616-.674-1.456-.323.59.569v.8l-2.294,1.254v2.784l5.136,3.626h0l.185.131-.25.346v.33l-.175-.124h0l-.019-.014-5.573-3.934v-3.558l2.294-1.254v-.095l-2.154-2.08,4.082.906.947,1.035v1.922l-.64.355v.366Z" transform="translate(-105.62 324.698)" fill="#b5091b"/>
      <path id="Path_9310" data-name="Path 9310" d="M180.341-321.269v3.558l-5.573,3.934-.019.014h0l-.175.124v-.373l-.231-.315.024-.016h0l.143-.1h0l5.136-3.626v-2.784l-2.294-1.254v-.8l.59-.569-1.456.323-.616.674v1.243l.639.355v1.2l-4.278,2.255-.058.031-.035.019-.023.012-.415-.568,4.114-2.168v-.366l-.64-.355v-1.922l.947-1.035,4.082-.906-2.154,2.08v.095Z" transform="translate(-158.86 324.698)" fill="#b5091b"/>
      <path id="Path_9311" data-name="Path 9311" d="M165.377-245.48l-1.434,3.388h.937l.754-3.388Z" transform="translate(-152.564 260.387)" fill="#b5091b"/>
      <path id="Path_9312" data-name="Path 9312" d="M138.006-275.639v-.46l-.055-.033h0l-2.2-1.3a1.482,1.482,0,0,1-.223-1.1v-6.349l-.231-.315-2.228-3.047-.415-.568h-3.7l-.412.57-2.212,3.059-.25.347v6.3a1.48,1.48,0,0,1-.224,1.1l-2.2,1.3-.055.033v.46l2.479-1.687.129.3-2.608,1.723v.9l3.046-2.147.437.778-3.483,2.089v.756l.055-.028,5.163-2.688h3.967l5.162,2.687h0l.055.028v-.755l-3.484-2.09.438-.778,3.046,2.147v-.9l-2.61-1.724.13-.3ZM128.821-287h3.967v5.8h-3.967Zm-1.618,2.419.009-.014,1.2-1.8v5.183l-1.21,1.855Zm6.185,7.31h-2.973l-1.436-3.388,1.434,3.388H128.22l-.733-1.056,1.236-2.332h4.162l1.236,2.332Zm1.016-2.083-1.21-1.855v-5.226l1.1,1.681v0l.108.164,0,.007Z" transform="translate(-119.814 295.563)" fill="#1a1818"/>
      <g id="Group_1839" data-name="Group 1839" transform="translate(6.044 6.672)">
        <line id="Line_6358" data-name="Line 6358" y1="3.807" x2="2.753" transform="translate(0.091 0.066)" fill="none"/>
        <rect id="Rectangle_2227" data-name="Rectangle 2227" width="4.698" height="0.225" transform="matrix(0.586, -0.81, 0.81, 0.586, 0, 3.807)" fill="#b5091b"/>
      </g>
      <g id="Group_1840" data-name="Group 1840" transform="translate(13.021 6.691)">
        <line id="Line_6359" data-name="Line 6359" x1="2.753" y1="3.807" transform="translate(0.091 0.066)" fill="none"/>
        <rect id="Rectangle_2228" data-name="Rectangle 2228" width="0.225" height="4.698" transform="matrix(0.81, -0.586, 0.586, 0.81, 0, 0.132)" fill="#b5091b"/>
      </g>
      <path id="Path_9313" data-name="Path 9313" d="M126.648-225.743l-.437-.472-2.609,1.723v.9Z" transform="translate(-119.814 244.747)" fill="#b5091b"/>
      <path id="Path_9314" data-name="Path 9314" d="M183.955-225.743l.437-.472L187-224.492v.9Z" transform="translate(-168.81 244.747)" fill="#b5091b"/>
    </g>
  </g>
</svg>
