<svg xmlns="http://www.w3.org/2000/svg" width="1162.606" height="190.971" viewBox="0 0 1162.606 190.971">
  <path id="Features" d="M39.2,0H10.692Q5.346,0,7.128-6.237l46.926-178.5q2.079-6.237,8.91-6.237h39.5q7.425,0,8.91,6.237L158.3-6.237Q160.083,0,154.737,0H126.225q-3.267,0-4.455-1.337t-1.782-4.9l-8.316-32.67H53.757L45.441-6.237q-.594,3.564-1.931,4.9A5.905,5.905,0,0,1,39.2,0ZM82.269-155.034,60.885-69.2h43.956L83.457-155.034ZM225.72-31.482h33.264q9.8,0,14.107-4.009T277.4-48.708V-65.934q0-9.207-4.455-13.068T258.39-82.863H225.72q-3.267,0-3.267,3.267v44.847Q222.453-31.482,225.72-31.482Zm0-81.972h30.294q9.5,0,13.959-4.009t4.455-13.217v-11.583q0-9.207-4.306-13.216t-13.811-4.009H225.72q-3.267,0-3.267,3.267v39.5Q222.453-113.454,225.72-113.454ZM184.734-6.237v-178.5q0-6.237,6.237-6.237h71.28q23.463,0,36.234,12.474t12.771,35.64v12.177q0,25.245-23.463,32.67,11.88,1.782,19.008,9.652t7.128,22.424v17.82q0,23.166-12.771,35.64T265.221,0h-74.25Q184.734,0,184.734-6.237ZM401.544-32.67h21.087q9.5,0,13.513-4.009t4.01-13.514v-90.585q0-9.5-4.01-13.513t-13.513-4.01H401.544q-9.5,0-13.365,4.01t-3.861,13.513v90.585q0,9.5,3.861,13.514T401.544-32.67ZM428.868,0H395.6Q372.141,0,359.37-12.474T346.6-48.411V-142.56q0-23.463,12.771-35.937T395.6-190.971h33.264q23.463,0,36.234,12.474t12.771,35.937v94.149q0,23.463-12.771,35.937T428.868,0ZM611.226-190.971h24.948q6.534,0,6.534,5.94v136.62q0,23.166-12.92,35.788T593.7,0h-32.67Q537.57,0,524.8-12.474T512.028-48.411V-184.734q0-6.237,6.237-6.237H543.51q6.237,0,6.237,6.237V-50.193q0,9.5,4.01,13.514t13.216,4.009h20.493q9.5,0,13.513-4.009t4.01-13.514V-184.734Q604.989-190.971,611.226-190.971ZM738.936,0H713.988q-6.534,0-6.534-6.237v-148.8q0-3.267-3.267-3.267H670.329q-6.237,0-6.237-6.237v-20.2q0-6.237,6.237-6.237H782.595q6.237,0,6.237,6.237v20.2q0,6.237-6.237,6.237H748.737q-3.564,0-3.564,3.267v148.8Q745.173,0,738.936,0ZM974.457-190.971H999.4q6.534,0,6.534,5.94v136.62q0,23.166-12.919,35.788T956.934,0h-32.67Q900.8,0,888.03-12.474T875.259-48.411V-184.734q0-6.237,6.237-6.237h25.245q6.237,0,6.237,6.237V-50.193q0,9.5,4.01,13.514T930.2-32.67H950.7q9.5,0,13.513-4.009t4.01-13.514V-184.734Q968.22-190.971,974.457-190.971Zm63.855,142.263v-5.94q0-6.237,6.237-6.237h25.245q6.237,0,6.237,6.237v2.376q0,11.286,4.455,15.444t16.335,4.158h13.959q11.583,0,16.186-4.455t4.6-16.632v-3.564a14.89,14.89,0,0,0-6.979-13.217q-6.979-4.6-17.375-5.494a187.764,187.764,0,0,1-22.423-3.415,145.015,145.015,0,0,1-22.423-6.534q-10.4-4.009-17.375-15.741t-6.979-30.146v-10.4q0-23.166,13.068-35.937t36.234-12.771h29.7q23.463,0,36.531,12.771t13.068,35.937v5.643q0,6.237-6.237,6.237h-25.245q-6.237,0-6.237-6.237V-138.4q0-11.583-4.455-15.741t-16.335-4.158h-11.583q-12.177,0-16.483,4.6t-4.307,17.969v5.643q0,13.959,24.354,16.038,25.245,2.079,44.847,10.1,10.4,4.455,17.375,15.889t6.979,29.255v10.1q0,23.166-13.068,35.937T1119.987,0h-32.373q-23.166,0-36.234-12.771T1038.312-48.708Z" transform="translate(-6.682 190.971)" fill="#353535" opacity="0.3"/>
</svg>
