<svg xmlns="http://www.w3.org/2000/svg" width="3773.088" height="190.971" viewBox="0 0 3773.088 190.971">
  <path id="Features" d="M97.713,0H65.34Q41.877,0,29.106-12.474T16.335-48.411V-142.56q0-23.463,12.771-35.937T65.34-190.971H97.713q23.166,0,36.086,12.622t12.919,35.788V-128.6q0,6.534-6.534,6.534H115.236q-6.237,0-6.237-6.534v-12.177q0-9.5-4.009-13.513T91.476-158.3H71.28q-9.207,0-13.217,4.01t-4.009,13.513v90.585q0,9.5,4.009,13.514T71.28-32.67h20.2q9.5,0,13.513-4.009T109-50.193V-62.37q0-6.534,6.237-6.534h24.948q6.534,0,6.534,6.534v13.959q0,23.166-12.919,35.788T97.713,0ZM231.066-32.67h21.087q9.5,0,13.514-4.009t4.009-13.514v-90.585q0-9.5-4.009-13.513t-13.514-4.01H231.066q-9.5,0-13.365,4.01t-3.861,13.513v90.585q0,9.5,3.861,13.514T231.066-32.67ZM258.39,0H225.126q-23.463,0-36.234-12.474T176.121-48.411V-142.56q0-23.463,12.771-35.937t36.234-12.474H258.39q23.463,0,36.234,12.474T307.4-142.56v94.149q0,23.463-12.771,35.937T258.39,0ZM469.854-190.971H513.81q6.237,0,6.237,6.237v178.5Q520.047,0,513.81,0H489.456q-6.237,0-6.237-6.237V-147.015h-1.188l-30.294,99.5q-1.782,5.94-7.425,5.94H419.364q-5.643,0-7.425-5.94l-30.888-99.792h-1.188V-6.237q0,3.564-1.188,4.9T373.626,0H349.272q-6.237,0-6.237-6.237v-178.5q0-6.237,6.237-6.237h44.253q4.158,0,5.643,4.158L430.65-81.972h1.782l31.779-104.841Q465.1-190.971,469.854-190.971ZM590.139,0H564.894q-6.237,0-6.237-6.237v-178.5q0-6.237,6.237-6.237h72.468q23.166,0,35.937,12.622T686.07-142.56v28.512q0,23.166-12.771,35.789T637.362-65.637H599.94q-3.564,0-3.564,3.267V-6.237Q596.376,0,590.139,0Zm9.5-98.6h31.482q9.5,0,13.365-4.01t3.861-13.216v-24.948q0-9.5-3.861-13.513t-13.365-4.01H599.643q-3.267,0-3.267,3.267v53.163Q596.376-98.6,599.643-98.6ZM819.423,0H722.3q-6.237,0-6.237-6.237v-178.5q0-6.237,6.237-6.237h97.119q5.94,0,5.94,6.237v20.2q0,6.237-5.94,6.237H757.35q-3.564,0-3.564,3.267v38.61q0,3.267,3.564,3.267h50.787q6.237,0,6.237,6.237v20.2q0,6.237-6.237,6.237H757.35q-3.564,0-3.564,3.267v41.283q0,3.267,3.564,3.267h62.073q5.94,0,5.94,6.237v20.2Q825.363,0,819.423,0Zm98.01,0H892.485q-6.534,0-6.534-6.237v-148.8q0-3.267-3.267-3.267H848.826q-6.237,0-6.237-6.237v-20.2q0-6.237,6.237-6.237H961.092q6.237,0,6.237,6.237v20.2q0,6.237-6.237,6.237H927.234q-3.564,0-3.564,3.267v148.8Q923.67,0,917.433,0ZM1029.1-184.734v178.5Q1029.1,0,1022.868,0H997.623q-6.237,0-6.237-6.237v-178.5q0-6.237,6.237-6.237h25.245Q1029.105-190.971,1029.1-184.734ZM1128.3,0h-24.948q-6.534,0-6.534-6.237v-148.8q0-3.267-3.267-3.267H1059.7q-6.237,0-6.237-6.237v-20.2q0-6.237,6.237-6.237h112.266q6.237,0,6.237,6.237v20.2q0,6.237-6.237,6.237H1138.1q-3.564,0-3.564,3.267v148.8Q1134.54,0,1128.3,0Zm111.672-184.734v178.5q0,6.237-6.237,6.237h-25.245q-6.237,0-6.237-6.237v-178.5q0-6.237,6.237-6.237h25.245Q1239.975-190.971,1239.975-184.734Zm92.07,152.064h21.087q9.5,0,13.514-4.009t4.01-13.514v-90.585q0-9.5-4.01-13.513t-13.514-4.01h-21.087q-9.5,0-13.365,4.01t-3.861,13.513v90.585q0,9.5,3.861,13.514T1332.045-32.67ZM1359.369,0H1326.1q-23.463,0-36.234-12.474T1277.1-48.411V-142.56q0-23.463,12.771-35.937t36.234-12.474h33.264q23.463,0,36.234,12.474t12.771,35.937v94.149q0,23.463-12.771,35.937T1359.369,0ZM1474.9,0h-24.651q-6.237,0-6.237-6.237v-178.5q0-6.237,6.237-6.237h22.275q6.237,0,8.316,4.158L1540.836-74.25h1.188V-184.734q0-6.237,6.237-6.237h24.651q6.237,0,6.237,6.237v178.5q0,6.237-6.237,6.237h-21.681a9.934,9.934,0,0,1-9.5-5.94l-59.4-110.484h-1.188V-6.237Q1481.139,0,1474.9,0Zm138.1-48.708v-5.94q0-6.237,6.237-6.237h25.245q6.237,0,6.237,6.237v2.376q0,11.286,4.455,15.444t16.335,4.158h13.959q11.583,0,16.187-4.455t4.6-16.632v-3.564a14.89,14.89,0,0,0-6.979-13.217q-6.979-4.6-17.375-5.494a187.769,187.769,0,0,1-22.424-3.415,145.023,145.023,0,0,1-22.423-6.534q-10.4-4.009-17.375-15.741t-6.979-30.146v-10.4q0-23.166,13.068-35.937t36.234-12.771h29.7q23.463,0,36.531,12.771t13.068,35.937v5.643q0,6.237-6.237,6.237h-25.245q-6.237,0-6.237-6.237V-138.4q0-11.583-4.455-15.741T1682.8-158.3h-11.583q-12.177,0-16.484,4.6t-4.307,17.969v5.643q0,13.959,24.354,16.038,25.245,2.079,44.847,10.1,10.4,4.455,17.375,15.889t6.979,29.255v10.1q0,23.166-13.068,35.937T1694.682,0h-32.373q-23.166,0-36.234-12.771T1613.007-48.708ZM1909.116,0h-41.58q-6.534,0-7.425-6.237l-31.779-178.5q-.891-6.237,6.237-6.237h30.888q6.831,0,7.128,6.237l17.226,146.421h2.079L1920.4-185.625q.891-5.346,6.237-5.346H1959.9q5.643,0,6.534,5.049l29.106,147.609h2.376l16.929-146.124q.3-6.534,7.128-6.534h30.888q7.128,0,6.237,6.534l-32.076,178.2Q2026.134,0,2020.194,0h-41.877q-6.237,0-7.128-6.237l-26.73-139.293h-1.188L1916.244-6.237Q1915.056,0,1909.116,0Zm277.1,0H2089.1q-6.237,0-6.237-6.237v-178.5q0-6.237,6.237-6.237h97.119q5.94,0,5.94,6.237v20.2q0,6.237-5.94,6.237h-62.073q-3.564,0-3.564,3.267v38.61q0,3.267,3.564,3.267h50.787q6.237,0,6.237,6.237v20.2q0,6.237-6.237,6.237h-50.787q-3.564,0-3.564,3.267v41.283q0,3.267,3.564,3.267h62.073q5.94,0,5.94,6.237v20.2Q2192.157,0,2186.217,0Zm135.729,0H2296.7q-6.237,0-6.237-6.237v-178.5q0-6.237,6.237-6.237h72.468q23.166,0,35.937,12.622t12.771,35.788v28.512q0,23.166-12.771,35.789t-35.937,12.622h-37.422q-3.564,0-3.564,3.267V-6.237Q2328.183,0,2321.946,0Zm9.5-98.6h31.482q9.5,0,13.365-4.01t3.861-13.216v-24.948q0-9.5-3.861-13.513t-13.365-4.01H2331.45q-3.267,0-3.267,3.267v53.163Q2328.183-98.6,2331.45-98.6ZM2467.773,0h-28.512q-5.346,0-3.564-6.237l46.926-178.5q2.079-6.237,8.91-6.237h39.5q7.425,0,8.91,6.237l46.926,178.5Q2588.652,0,2583.306,0h-28.512q-3.267,0-4.455-1.337t-1.782-4.9l-8.316-32.67h-57.915l-8.316,32.67q-.594,3.564-1.93,4.9A5.905,5.905,0,0,1,2467.773,0Zm43.065-155.034L2489.454-69.2h43.956l-21.384-85.833ZM2644.785,0H2619.54q-6.237,0-6.237-6.237v-178.5q0-6.237,6.237-6.237h70.686q23.166,0,36.234,12.771t13.068,35.937V-119.1q0,33.561-26.433,44.55v1.188l31.779,66.231Q2747.547,0,2739.825,0h-24.057q-5.346,0-7.722-1.188t-3.861-5.049l-29.7-64.152h-19.9q-3.564,0-3.564,3.267V-6.237Q2651.022,0,2644.785,0Zm9.5-100.683h29.106q9.5,0,13.959-4.009t4.455-12.92v-23.166q0-9.207-4.455-13.365t-13.959-4.158h-29.106q-3.267,0-3.267,3.267v51.084Q2651.022-100.683,2654.289-100.683ZM2834.865,0h-24.948q-6.534,0-6.534-6.237v-148.8q0-3.267-3.267-3.267h-33.858q-6.237,0-6.237-6.237v-20.2q0-6.237,6.237-6.237h112.266q6.237,0,6.237,6.237v20.2q0,6.237-6.237,6.237h-33.858q-3.564,0-3.564,3.267v148.8Q2841.1,0,2834.865,0Zm111.672-184.734v178.5Q2946.537,0,2940.3,0h-25.245q-6.237,0-6.237-6.237v-178.5q0-6.237,6.237-6.237H2940.3Q2946.537-190.971,2946.537-184.734ZM3065.04,0h-32.373q-23.463,0-36.234-12.474t-12.771-35.937V-142.56q0-23.463,12.771-35.937t36.234-12.474h32.373q23.166,0,36.086,12.622t12.919,35.788V-128.6q0,6.534-6.534,6.534h-24.948q-6.237,0-6.237-6.534v-12.177q0-9.5-4.01-13.513T3058.8-158.3h-20.2q-9.207,0-13.217,4.01t-4.01,13.513v90.585q0,9.5,4.01,13.514t13.217,4.009h20.2q9.5,0,13.513-4.009t4.01-13.514V-62.37q0-6.534,6.237-6.534h24.948q6.534,0,6.534,6.534v13.959q0,23.166-12.919,35.788T3065.04,0Zm120.582-184.734v178.5q0,6.237-6.237,6.237H3154.14q-6.237,0-6.237-6.237v-178.5q0-6.237,6.237-6.237h25.245Q3185.622-190.971,3185.622-184.734ZM3257.2,0h-25.245q-6.237,0-6.237-6.237v-178.5q0-6.237,6.237-6.237h72.468q23.166,0,35.937,12.622t12.771,35.788v28.512q0,23.166-12.771,35.789t-35.937,12.622H3267q-3.564,0-3.564,3.267V-6.237Q3263.436,0,3257.2,0Zm9.5-98.6h31.482q9.5,0,13.365-4.01t3.861-13.216v-24.948q0-9.5-3.861-13.513t-13.365-4.01H3266.7q-3.267,0-3.267,3.267v53.163Q3263.436-98.6,3266.7-98.6ZM3403.026,0h-28.512q-5.346,0-3.564-6.237l46.926-178.5q2.079-6.237,8.91-6.237h39.5q7.425,0,8.91,6.237l46.926,178.5Q3523.9,0,3518.559,0h-28.512q-3.267,0-4.455-1.337t-1.782-4.9l-8.316-32.67h-57.915l-8.316,32.67q-.594,3.564-1.93,4.9A5.905,5.905,0,0,1,3403.026,0Zm43.065-155.034L3424.707-69.2h43.956l-21.384-85.833ZM3607.659,0h-24.948q-6.534,0-6.534-6.237v-148.8q0-3.267-3.267-3.267h-33.858q-6.237,0-6.237-6.237v-20.2q0-6.237,6.237-6.237h112.266q6.237,0,6.237,6.237v20.2q0,6.237-6.237,6.237H3617.46q-3.564,0-3.564,3.267v148.8Q3613.9,0,3607.659,0Zm175.824,0h-97.119q-6.237,0-6.237-6.237v-178.5q0-6.237,6.237-6.237h97.119q5.94,0,5.94,6.237v20.2q0,6.237-5.94,6.237H3721.41q-3.564,0-3.564,3.267v38.61q0,3.267,3.564,3.267H3772.2q6.237,0,6.237,6.237v20.2q0,6.237-6.237,6.237H3721.41q-3.564,0-3.564,3.267v41.283q0,3.267,3.564,3.267h62.073q5.94,0,5.94,6.237v20.2Q3789.423,0,3783.483,0Z" transform="translate(-16.335 190.971)" fill="#353535" opacity="0.2"/>
</svg>
