<svg xmlns="http://www.w3.org/2000/svg" width="638.55" height="190.971" viewBox="0 0 638.55 190.971">
  <path id="Features" d="M50.787,0H25.542Q19.3,0,19.305-6.237v-178.5q0-6.237,6.237-6.237h94.743q5.94,0,5.94,6.237v20.2q0,6.237-5.94,6.237h-59.7q-3.564,0-3.564,3.267V-109q0,3.564,3.564,3.564h50.787q6.237,0,6.237,6.237v19.9q0,6.534-6.237,6.534H60.588q-3.564,0-3.564,3.267V-6.237Q57.024,0,50.787,0ZM204.93-32.67h21.087q9.5,0,13.514-4.009t4.009-13.514v-90.585q0-9.5-4.009-13.513t-13.514-4.01H204.93q-9.5,0-13.365,4.01T187.7-140.778v90.585q0,9.5,3.861,13.514T204.93-32.67ZM232.254,0H198.99q-23.463,0-36.234-12.474T149.985-48.411V-142.56q0-23.463,12.771-35.937t36.234-12.474h33.264q23.463,0,36.234,12.474t12.771,35.937v94.149q0,23.463-12.771,35.937T232.254,0Zm188.6,0H323.136Q316.9,0,316.9-6.237v-178.5q0-6.237,6.237-6.237h25.245q6.237,0,6.237,6.237v148.5q0,3.267,3.564,3.267h62.667q5.94,0,5.94,6.534v20.2Q426.789,0,420.849,0Zm68.607-184.734v178.5Q489.456,0,483.219,0H457.974q-6.237,0-6.237-6.237v-178.5q0-6.237,6.237-6.237h25.245Q489.456-190.971,489.456-184.734ZM581.526-32.67h21.087q9.5,0,13.513-4.009t4.01-13.514v-90.585q0-9.5-4.01-13.513t-13.513-4.01H581.526q-9.5,0-13.365,4.01T564.3-140.778v90.585q0,9.5,3.861,13.514T581.526-32.67ZM608.85,0H575.586q-23.463,0-36.234-12.474T526.581-48.411V-142.56q0-23.463,12.771-35.937t36.234-12.474H608.85q23.463,0,36.234,12.474t12.771,35.937v94.149q0,23.463-12.771,35.937T608.85,0Z" transform="translate(-19.305 190.971)" fill="#353535" opacity="0.1"/>
</svg>
