<svg xmlns="http://www.w3.org/2000/svg" width="48.885" height="58.066" viewBox="0 0 48.885 58.066">
  <g id="Group_407" data-name="Group 407" transform="translate(4760.479 -4191.338)">
    <line id="Line_45" data-name="Line 45" y1="8.465" x2="6.122" transform="translate(-4747.662 4206.156)" fill="#fff"/>
    <rect id="Rectangle_134" data-name="Rectangle 134" width="10.449" height="0.502" transform="translate(-4747.864 4214.47) rotate(-54.14)" fill="#e1e1e1"/>
    <line id="Line_46" data-name="Line 46" x1="6.122" y1="8.465" transform="translate(-4730.493 4206.198)" fill="#fff"/>
    <rect id="Rectangle_135" data-name="Rectangle 135" width="0.502" height="10.449" transform="translate(-4730.696 4206.346) rotate(-35.86)" fill="#e1e1e1"/>
    <path id="Path_9191" data-name="Path 9191" d="M39.523,44.947h-.569l1.674,7.532H42.72Z" transform="translate(-4779.62 4179.542)" fill="#e1e1e1"/>
    <rect id="Rectangle_136" data-name="Rectangle 136" height="0.736" transform="translate(-4752.056 4235.649)" fill="#e1e1e1"/>
    <rect id="Rectangle_137" data-name="Rectangle 137" height="1.603" transform="translate(-4752.056 4238.377)" fill="#e1e1e1"/>
    <rect id="Rectangle_138" data-name="Rectangle 138" width="8.424" height="19.203" rx="2.886" transform="translate(-4760.479 4230.197)" fill="#e1e1e1"/>
    <path id="Path_9192" data-name="Path 9192" d="M36.062,37.412l-.008.017h0Z" transform="translate(-4780.088 4178.327)" fill="#e1e1e1"/>
    <path id="Path_9193" data-name="Path 9193" d="M42.716,52.483H40.632l-1.678-7.536h.569Z" transform="translate(-4779.62 4179.542)" fill="#e1e1e1"/>
    <rect id="Rectangle_139" data-name="Rectangle 139" width="8.428" height="19.203" rx="3.629" transform="translate(-4711.595 4249.404) rotate(180)" fill="#e1e1e1"/>
    <path id="Path_9194" data-name="Path 9194" d="M46.874,44.947l-3.189,7.536,3.189-7.536Z" transform="translate(-4778.857 4179.542)" fill="#e1e1e1"/>
    <path id="Path_9195" data-name="Path 9195" d="M49.859,37.477h0l-.239-.368Z" transform="translate(-4777.899 4178.278)" fill="#e1e1e1"/>
    <path id="Path_9196" data-name="Path 9196" d="M47.448,44.947,45.77,52.483H43.686l3.189-7.536Z" transform="translate(-4778.857 4179.542)" fill="#e1e1e1"/>
    <path id="Path_9197" data-name="Path 9197" d="M35.92,52.937l-6.771,4.779h0v-2h0l5.8-3.829Z" transform="translate(-4781.201 4180.662)" fill="#e1e1e1"/>
    <path id="Path_9198" data-name="Path 9198" d="M57.671,55.72v2L50.9,52.937l.971-1.046Z" transform="translate(-4777.694 4180.662)" fill="#e1e1e1"/>
    <path id="Path_9199" data-name="Path 9199" d="M42.066,31.418l-.916,1.268-.054-.029-.08-.042-.13-.071-9.512-5.013V24.874l1.419-.791V21.321l-1.368-1.5L28.19,19.1l1.31,1.264v1.791l-5.1,2.787v6.193L35.819,39.2v0l.414.293-.557.766v.736l-.389-.276v0l-.046-.033-12.395-8.75V24.028l5.105-2.791v-.209L23.16,16.4l9.076,2.017,2.1,2.3v4.277l-1.423.787V26.6Z" transform="translate(-4782.217 4174.938)" fill="#e1e1e1"/>
    <path id="Path_9200" data-name="Path 9200" d="M65.7,24.028v7.909L53.3,40.687l-.042.033v0l-.389.276V40.16l-.515-.7.05-.038h0l.318-.226,0,0,11.42-8.064V24.945l-5.1-2.787V20.367l1.31-1.264-3.235.72-1.368,1.5v2.762l1.419.791v2.657l-9.512,5.013-.13.071-.08.042-.05.025-.925-1.264L55.626,26.6v-.816L54.2,24.995V20.718l2.109-2.3L65.389,16.4,60.6,21.028v.209Z" transform="translate(-4778.406 4174.938)" fill="#e1e1e1"/>
    <path id="Path_9201" data-name="Path 9201" d="M46.874,44.947l-3.189,7.532h2.092l1.674-7.532Z" transform="translate(-4778.857 4179.542)" fill="#e1e1e1"/>
    <path id="Path_9202" data-name="Path 9202" d="M61.178,58.62v-1l-.121-.071h0l-4.892-2.9a3.286,3.286,0,0,1-.494-2.435V38.073l-.531-.7L50.185,30.6,49.26,29.34H41.05L40.134,30.6l-4.917,6.8-.557.774V52.18a3.275,3.275,0,0,1-.5,2.435l-4.892,2.9-.121.071v1.021l5.511-3.766.289.653-5.8,3.833v2l6.775-4.775.971,1.728-7.746,4.678v1.674l.121-.063,11.483-5.98h8.821l11.478,5.976h0l.121.063V62.951L53.428,58.3l.971-1.728,6.775,4.775V59.356l-5.8-3.829.289-.653ZM40.753,33.349h8.821v12.91H40.753Zm-3.607,5.394v-.029l2.67-4V46.242l-2.67,4.122ZM50.9,55H44.289L41.1,47.468,44.289,55H39.414l-1.628-2.352,2.749-5.185h9.256l2.745,5.185Zm2.26-4.637L50.47,46.242V34.6l2.44,3.741h0l.239.364h0Z" transform="translate(-4781.201 4177.025)" fill="#e1e1e1"/>
    <line id="Line_47" data-name="Line 47" y1="8.465" x2="6.122" transform="translate(-4746.833 4206.323)" fill="#fff"/>
    <rect id="Rectangle_140" data-name="Rectangle 140" width="10.449" height="0.502" transform="translate(-4747.037 4214.639) rotate(-54.14)" fill="#e1e1e1"/>
    <line id="Line_48" data-name="Line 48" x1="6.122" y1="8.465" transform="translate(-4731.317 4206.365)" fill="#fff"/>
    <rect id="Rectangle_141" data-name="Rectangle 141" width="0.502" height="10.449" transform="translate(-4731.521 4206.513) rotate(-35.86)" fill="#e1e1e1"/>
    <path id="Path_9203" data-name="Path 9203" d="M35.92,52.937l-.971-1.046-5.8,3.829v2Z" transform="translate(-4781.201 4180.662)" fill="#e1e1e1"/>
    <path id="Path_9204" data-name="Path 9204" d="M50.9,52.937l.971-1.046,5.8,3.829v2Z" transform="translate(-4777.694 4180.662)" fill="#e1e1e1"/>
  </g>
</svg>
