<svg xmlns="http://www.w3.org/2000/svg" width="642.808" height="345.273" viewBox="0 0 642.808 345.273">
  <g id="Group_416" data-name="Group 416" transform="translate(-125.982 -360.202)">
    <g id="Group_413" data-name="Group 413" transform="translate(-807.011 44.585)">
      <g id="Group_408" data-name="Group 408" transform="translate(932.993 315.617)" opacity="0.5">
        <path id="Path_9205" data-name="Path 9205" d="M944.952,495.669a47.845,47.845,0,0,1,18.413-22.709,49.686,49.686,0,0,1,27.974-8.371H1110.66a14.69,14.69,0,0,0,11.476-7.656l33-81.06h-63.361l11.715-29.17a50.9,50.9,0,0,1,7.529-12.672,48.42,48.42,0,0,1,10.762-9.8,52.236,52.236,0,0,1,13.27-6.333,48.73,48.73,0,0,1,14.826-2.275h93.017q-20.57,50.456-36.588,90.145-6.942,16.75-13.509,33T1181.08,467.7q-5.14,12.681-11.6,28.456a49.549,49.549,0,0,1-18.3,20.921,48.24,48.24,0,0,1-26.656,7.773H932.994Z" transform="translate(-932.994 -315.617)" fill="#353535"/>
      </g>
      <g id="Group_409" data-name="Group 409" transform="translate(1053.415 480.633)" opacity="0.5">
        <path id="Path_9206" data-name="Path 9206" d="M1016.544,372.413a41.849,41.849,0,0,1,15.861-19.67,42.413,42.413,0,0,1,24.11-7.319H1221.73L1180.32,447.2a41.816,41.816,0,0,1-15.861,19.67,42.369,42.369,0,0,1-24.1,7.319h-10.707l21.01,51.5h-55.622l-20.8-51.5h-43.055l-16.071,39.135a19.933,19.933,0,0,1-18.336,12.362H954.744Zm35.852,49.443h77.661a7.82,7.82,0,0,0,4.224-1.235,6.829,6.829,0,0,0,2.779-3.3l8.039-19.775h-77.667a7.28,7.28,0,0,0-7.208,4.739Z" transform="translate(-954.744 -345.424)" fill="#353535"/>
      </g>
    </g>
    <g id="Group_415" data-name="Group 415" transform="translate(-60 339.552)">
      <path id="Path_9207" data-name="Path 9207" d="M-6.789-8.906a14.611,14.611,0,0,1,5.621-6.935A15.174,15.174,0,0,1,7.373-18.4H43.8a3.742,3.742,0,0,0,2.044-.73,3.742,3.742,0,0,0,1.46-1.606L57.378-45.479H38.033l3.577-8.906a15.5,15.5,0,0,1,2.3-3.869,14.763,14.763,0,0,1,3.285-2.993,15.935,15.935,0,0,1,4.051-1.935,14.9,14.9,0,0,1,4.526-.694h28.4Q77.891-48.472,73-36.354q-2.117,5.11-4.124,10.074T65.3-17.447q-1.569,3.869-2.555,6.278L61.758-8.76a15.13,15.13,0,0,1-5.584,6.388A14.732,14.732,0,0,1,48.034,0H-10.439Z" transform="translate(356.022 221.581)" fill="#d5d5d5"/>
      <path id="Path_9208" data-name="Path 9208" d="M7.913-30.955a8.5,8.5,0,0,1,3.137-3.587,8.274,8.274,0,0,1,4.571-1.333h5.166L10.332-10.332h15.5a1.963,1.963,0,0,0,1.127-.349,2.055,2.055,0,0,0,.759-.963l8.9-21.771A3.867,3.867,0,0,1,38.069-35.2a3.847,3.847,0,0,1,2.194-.677h8.2L36.039-5.371a8.323,8.323,0,0,1-3.157,3.916A8.437,8.437,0,0,1,28.085,0H-4.674Q-1.148-8.651,1.6-15.416q1.189-2.911,2.317-5.7t2.03-4.961q.9-2.173,1.435-3.526Zm43.34,0a8.5,8.5,0,0,1,3.137-3.587,8.274,8.274,0,0,1,4.571-1.333H91.8l-2.05,5A8.352,8.352,0,0,1,86.6-27a8.436,8.436,0,0,1-4.8,1.455H61.339a1.683,1.683,0,0,0-1,.307,4.93,4.93,0,0,0-.8.718q-.123.246-.738,1.8-.287.656-.7,1.681t-1.025,2.521q-.615,1.5-1.456,3.505t-1.906,4.674H67.858a3.943,3.943,0,0,0,2.214-.677,3.828,3.828,0,0,0,1.476-1.783,4.827,4.827,0,0,1,.184-.472q.1-.226.185-.431h-6.6q.82-2.05,1.414-3.526t1-2.46A3.839,3.839,0,0,1,69.191-21.5a3.847,3.847,0,0,1,2.194-.676h14.8L79.338-5.371A8.364,8.364,0,0,1,76.2-1.456,8.407,8.407,0,0,1,71.384,0H38.666q3.526-8.651,6.273-15.457Zm43.34,0a8.5,8.5,0,0,1,3.136-3.587,8.274,8.274,0,0,1,4.572-1.333h32.841l-2.05,5A8.352,8.352,0,0,1,129.935-27a8.436,8.436,0,0,1-4.8,1.455H104.679a1.683,1.683,0,0,0-1,.307,4.931,4.931,0,0,0-.8.718q-.123.246-.738,1.8-.287.656-.7,1.681t-1.025,2.521q-.615,1.5-1.455,3.505t-1.907,4.674H111.2a3.943,3.943,0,0,0,2.214-.677,3.828,3.828,0,0,0,1.476-1.783,4.827,4.827,0,0,1,.185-.472q.1-.226.185-.431h-6.6q.82-2.05,1.415-3.526t1-2.46a3.839,3.839,0,0,1,1.456-1.825,3.847,3.847,0,0,1,2.193-.676h14.8l-6.847,16.81a8.364,8.364,0,0,1-3.136,3.916A8.407,8.407,0,0,1,114.724,0H82.006q3.526-8.651,6.273-15.457ZM124.772,0l.533-1.333q.533-1.332,1.414-3.506t2.009-4.941q1.127-2.768,2.316-5.678t2.317-5.679q1.127-2.768,2.009-4.961t1.435-3.526l.553-1.333a8.5,8.5,0,0,1,3.136-3.587,8.274,8.274,0,0,1,4.572-1.333h32.841l-2.05,5A8.352,8.352,0,0,1,172.7-27a8.436,8.436,0,0,1-4.8,1.455H147.445a2,2,0,0,0-1.968,1.312l-.861,2.05h17.507l-2.46,5.986a3.839,3.839,0,0,1-1.456,1.824,3.912,3.912,0,0,1-2.234.676H142.607a2,2,0,0,0-1.968,1.312l-.82,2.05h27.634l-2.009,4.961a8.323,8.323,0,0,1-3.157,3.916A8.436,8.436,0,0,1,157.49,0Zm55.64-30.5a8.323,8.323,0,0,1,3.157-3.916,8.436,8.436,0,0,1,4.8-1.456h32.882l-8.241,20.254a8.323,8.323,0,0,1-3.157,3.915,8.436,8.436,0,0,1-4.8,1.456h-2.132L207.1,0h-11.07l-4.141-10.25h-8.569l-3.2,7.79A3.867,3.867,0,0,1,178.67-.677,3.847,3.847,0,0,1,176.477,0h-8.364Zm7.134,9.84H203a1.545,1.545,0,0,0,.84-.246,1.359,1.359,0,0,0,.554-.656L206-25.5H190.54a1.45,1.45,0,0,0-1.435.943ZM211.453,0l12.423-30.586a8.7,8.7,0,0,1,1.292-2.173,8.292,8.292,0,0,1,1.845-1.681,8.531,8.531,0,0,1,2.255-1.066,8.454,8.454,0,0,1,2.48-.369h32.841l-12.423,30.5a8.323,8.323,0,0,1-3.157,3.916A8.436,8.436,0,0,1,244.212,0H239l10.373-25.543H233.552a1.029,1.029,0,0,0-1.025.7L223.466-2.46a3.91,3.91,0,0,1-1.435,1.784A3.752,3.752,0,0,1,219.858,0h-8.4ZM253.6,0l12.464-30.586a8.315,8.315,0,0,1,3.116-3.854,8.329,8.329,0,0,1,4.756-1.435h32.8l-12.382,30.5A8.323,8.323,0,0,1,291.2-1.456,8.437,8.437,0,0,1,286.4,0H281.2l5.576-13.694H270.168L265.576-2.46A3.868,3.868,0,0,1,264.12-.677,3.912,3.912,0,0,1,261.886,0Zm35.834-22.181a1.029,1.029,0,0,0,1.025-.7l1.107-2.665H275.744a1.029,1.029,0,0,0-1.025.7l-1.107,2.665Zm19.519-8.774a8.5,8.5,0,0,1,3.137-3.587,8.274,8.274,0,0,1,4.572-1.333h5.166L311.376-10.332h15.5A1.962,1.962,0,0,0,328-10.681a2.055,2.055,0,0,0,.759-.963l8.9-21.771a3.867,3.867,0,0,1,1.456-1.784,3.847,3.847,0,0,1,2.193-.677h8.2l-12.423,30.5a8.323,8.323,0,0,1-3.157,3.916A8.437,8.437,0,0,1,329.129,0H296.37q3.526-8.651,6.273-15.416,1.189-2.911,2.316-5.7t2.03-4.961q.9-2.173,1.435-3.526ZM349.673-25.5l2.009-5a8.323,8.323,0,0,1,3.157-3.916,8.437,8.437,0,0,1,4.8-1.456h32.841l-2.05,5a8.364,8.364,0,0,1-3.137,3.916,8.407,8.407,0,0,1-4.818,1.455h-7.134l-8.2,20.131a8.323,8.323,0,0,1-3.157,3.916A8.436,8.436,0,0,1,359.185,0h-5.248L364.31-25.5Z" transform="translate(436.313 201.223)" fill="#d5d5d5"/>
      <path id="Path_9209" data-name="Path 9209" d="M-5.289,0,7.175-30.586a8.315,8.315,0,0,1,3.116-3.854,8.329,8.329,0,0,1,4.756-1.435h32.8L35.465-5.371a8.323,8.323,0,0,1-3.157,3.916A8.436,8.436,0,0,1,27.511,0H22.3L27.88-13.694H11.275L6.683-2.46A3.867,3.867,0,0,1,5.228-.677,3.912,3.912,0,0,1,2.993,0ZM30.545-22.181a1.029,1.029,0,0,0,1.025-.7l1.107-2.665H16.851a1.029,1.029,0,0,0-1.025.7l-1.107,2.665ZM36.907,0l.533-1.333q.533-1.332,1.415-3.506t2.009-4.941q1.128-2.768,2.317-5.678T45.5-21.135Q46.624-23.9,47.505-26.1t1.435-3.526l.554-1.333a8.5,8.5,0,0,1,3.137-3.587A8.274,8.274,0,0,1,57.2-35.875H90.043l-2.05,5A8.352,8.352,0,0,1,84.836-27a8.436,8.436,0,0,1-4.8,1.455H59.58a2,2,0,0,0-1.968,1.312l-5.658,13.9H79.588L77.579-5.371a8.323,8.323,0,0,1-3.157,3.916A8.436,8.436,0,0,1,69.625,0ZM92.059-30.5a8.323,8.323,0,0,1,3.157-3.916,8.437,8.437,0,0,1,4.8-1.456h5.248L92.879-5.371a8.323,8.323,0,0,1-3.157,3.916A8.5,8.5,0,0,1,84.884,0H79.636ZM94.895,0l12.423-30.586a8.7,8.7,0,0,1,1.292-2.173,8.292,8.292,0,0,1,1.845-1.681,8.53,8.53,0,0,1,2.255-1.066,8.454,8.454,0,0,1,2.48-.369h32.841l-12.423,30.5a8.323,8.323,0,0,1-3.157,3.916A8.437,8.437,0,0,1,127.654,0h-5.207L132.82-25.543H116.994a1.029,1.029,0,0,0-1.025.7L106.908-2.46a3.91,3.91,0,0,1-1.435,1.784A3.752,3.752,0,0,1,103.3,0H94.895Zm55.357-30.955a8.5,8.5,0,0,1,3.137-3.587,8.274,8.274,0,0,1,4.572-1.333H190.8l-2.05,5A8.352,8.352,0,0,1,185.594-27a8.436,8.436,0,0,1-4.8,1.455H160.338a1.683,1.683,0,0,0-1,.307,4.93,4.93,0,0,0-.8.718q-.123.246-.738,1.8-.287.656-.7,1.681t-1.025,2.521q-.615,1.5-1.456,3.505t-1.906,4.674h14.145a3.943,3.943,0,0,0,2.214-.677,3.829,3.829,0,0,0,1.476-1.783,4.824,4.824,0,0,1,.184-.472q.1-.226.184-.431h-6.6q.82-2.05,1.415-3.526t1-2.46a3.839,3.839,0,0,1,1.455-1.825,3.847,3.847,0,0,1,2.194-.676h14.8l-6.847,16.81A8.364,8.364,0,0,1,175.2-1.456,8.407,8.407,0,0,1,170.383,0H137.665q3.526-8.651,6.273-15.457Z" transform="translate(463.673 247.748)" fill="#d5d5d5"/>
      <path id="Path_9210" data-name="Path 9210" d="M10.6-42.408a11.571,11.571,0,0,1,4.389-5.444,11.729,11.729,0,0,1,6.669-2.023H67.374L55.917-21.717a11.571,11.571,0,0,1-4.389,5.444,11.729,11.729,0,0,1-6.669,2.024H41.9L47.709,0H32.319L26.562-14.25H14.649L10.2-3.42A5.377,5.377,0,0,1,8.179-.941,5.348,5.348,0,0,1,5.13,0H-6.5Zm9.918,13.68H42.009a2.148,2.148,0,0,0,1.168-.342,1.889,1.889,0,0,0,.77-.912l2.223-5.472H24.681a2.016,2.016,0,0,0-1.995,1.311Z" transform="translate(392.435 264.461)" fill="#d5d5d5"/>
    </g>
  </g>
</svg>
