<svg xmlns="http://www.w3.org/2000/svg" width="1286.4" height="128.6" viewBox="0 0 1286.4 128.6">
  <path id="Features" d="M-588.4,0h-21.8Q-626,0-634.6-8.4t-8.6-24.2V-96q0-15.8,8.6-24.2t24.4-8.4h21.8q15.6,0,24.3,8.5t8.7,24.1v9.4q0,4.4-4.4,4.4h-16.8q-4.2,0-4.2-4.4v-8.2q0-6.4-2.7-9.1t-9.1-2.7h-13.6q-6.2,0-8.9,2.7t-2.7,9.1v61q0,6.4,2.7,9.1t8.9,2.7h13.6q6.4,0,9.1-2.7t2.7-9.1V-42q0-4.4,4.2-4.4h16.8q4.4,0,4.4,4.4v9.4q0,15.6-8.7,24.1T-588.4,0Zm76,0h-17q-4.2,0-4.2-4.2V-124.4q0-4.2,4.2-4.2h47.6q15.6,0,24.4,8.6t8.8,24.2v15.6q0,22.6-17.8,30v.8L-445-4.8q1.8,4.8-3.4,4.8h-16.2a12.394,12.394,0,0,1-5.2-.8,5.946,5.946,0,0,1-2.6-3.4l-20-43.2h-13.4q-2.4,0-2.4,2.2v41Q-508.2,0-512.4,0Zm6.4-67.8h19.6q6.4,0,9.4-2.7t3-8.7V-94.8q0-6.2-3-9t-9.4-2.8H-506a1.945,1.945,0,0,0-2.2,2.2V-70A1.945,1.945,0,0,0-506-67.8ZM-389.2-22H-375q6.4,0,9.1-2.7t2.7-9.1v-61q0-6.4-2.7-9.1t-9.1-2.7h-14.2q-6.4,0-9,2.7t-2.6,9.1v61q0,6.4,2.6,9.1T-389.2-22Zm18.4,22h-22.4Q-409,0-417.6-8.4t-8.6-24.2V-96q0-15.8,8.6-24.2t24.4-8.4h22.4q15.8,0,24.4,8.4t8.6,24.2v63.4q0,15.8-8.6,24.2T-370.8,0Zm101.4,0h-28q-4.4,0-5-4.2l-21.4-120.2q-.6-4.2,4.2-4.2h20.8q4.6,0,4.8,4.2l11.6,98.6h1.4l19.2-99.2a3.851,3.851,0,0,1,4.2-3.6h22.4q3.8,0,4.4,3.4l19.6,99.4h1.6l11.4-98.4q.2-4.4,4.8-4.4h20.8q4.8,0,4.2,4.4L-190-4.2q-.6,4.2-4.6,4.2h-28.2q-4.2,0-4.8-4.2l-18-93.8h-.8L-264.6-4.2Q-265.4,0-269.4,0Zm144.6-22H-103q6.4,0,9.1-2.7t2.7-9.1v-61q0-6.4-2.7-9.1t-9.1-2.7h-21.8a1.945,1.945,0,0,0-2.2,2.2v80.2A1.945,1.945,0,0,0-124.8-22ZM-152.4-4.2V-124.4q0-4.2,4.2-4.2h49.4q15.6,0,24.3,8.5T-65.8-96v63.4q0,15.6-8.7,24.1T-98.8,0h-49.4Q-152.4,0-152.4-4.2ZM-20.6,0h-17q-4.2,0-4.2-4.2V-124.4q0-4.2,4.2-4.2H26.2q4,0,4,4.2v13.6q0,4.2-4,4.2H-14q-2.4,0-2.4,2.2v31A2.121,2.121,0,0,0-14-71H20.2q4.2,0,4.2,4.2v13.4q0,4.4-4.2,4.4H-14q-2.4,0-2.4,2.2V-4.2Q-16.4,0-20.6,0ZM114-128.6h16.8q4.4,0,4.4,4v92q0,15.6-8.7,24.1T102.2,0h-22Q64.4,0,55.8-8.4T47.2-32.6v-91.8q0-4.2,4.2-4.2h17q4.2,0,4.2,4.2v90.6q0,6.4,2.7,9.1T84.2-22H98q6.4,0,9.1-2.7t2.7-9.1v-90.6Q109.8-128.6,114-128.6ZM181,0H164.4q-4.2,0-4.2-4.2V-124.4q0-4.2,4.2-4.2h15q4.2,0,5.6,2.8L225.4-50h.8v-74.4q0-4.2,4.2-4.2H247q4.2,0,4.2,4.2V-4.2Q251.2,0,247,0H232.4A6.689,6.689,0,0,1,226-4L186-78.4h-.8V-4.2Q185.2,0,181,0ZM304.8-22h21.8q6.4,0,9.1-2.7t2.7-9.1v-61q0-6.4-2.7-9.1t-9.1-2.7H304.8a1.945,1.945,0,0,0-2.2,2.2v80.2A1.945,1.945,0,0,0,304.8-22ZM277.2-4.2V-124.4q0-4.2,4.2-4.2h49.4q15.6,0,24.3,8.5T363.8-96v63.4q0,15.6-8.7,24.1T330.8,0H281.4Q277.2,0,277.2-4.2Zm137-120.2V-4.2Q414.2,0,410,0H393q-4.2,0-4.2-4.2V-124.4q0-4.2,4.2-4.2h17Q414.2-128.6,414.2-124.4ZM462,0H445.4q-4.2,0-4.2-4.2V-124.4q0-4.2,4.2-4.2h15q4.2,0,5.6,2.8L506.4-50h.8v-74.4q0-4.2,4.2-4.2H528q4.2,0,4.2,4.2V-4.2Q532.2,0,528,0H513.4A6.689,6.689,0,0,1,507-4L467-78.4h-.8V-4.2Q466.2,0,462,0ZM610.4,0H589.2q-15.8,0-24.4-8.4t-8.6-24.2V-96q0-15.8,8.6-24.2t24.4-8.4h21.2q15.6,0,24.2,8.5T643.2-96v6q0,4.4-4.2,4.4H622q-4.2,0-4.2-4.4v-4.8q0-6.4-2.6-9.1t-9-2.7h-13q-6.2,0-8.9,2.7t-2.7,9.1v61q0,6.4,2.7,9.1t8.9,2.7h13q6.4,0,9-2.7t2.6-9.1V-46.4a1.945,1.945,0,0,0-2.2-2.2h-12q-4.2,0-4.2-4.2V-66.4q0-4.2,4.2-4.2h35q4.6,0,4.6,4.6v33.4q0,15.6-8.6,24.1T610.4,0Z" transform="translate(643.2 128.6)" fill="#353535" opacity="0.65"/>
</svg>
