<svg xmlns="http://www.w3.org/2000/svg" xmlns:xlink="http://www.w3.org/1999/xlink" width="28" height="28" viewBox="0 0 28 28"><defs><clipPath id="a"><rect width="24" height="24" transform="translate(2.52 3)" fill="#fff" stroke="#707070" stroke-width="1"/></clipPath></defs><g transform="translate(4945 -2720)"><circle cx="14" cy="14" r="14" transform="translate(-4945 2720)" fill="#d5d5d5"/><g transform="translate(-4945.52 2719)" clip-path="url(#a)"><path d="M2.837,12.685H.209V4.223H2.837ZM1.522,3.068A1.529,1.529,0,1,1,3.044,1.532,1.535,1.535,0,0,1,1.522,3.068Zm11.151,9.617H10.051V8.566c0-.982-.02-2.241-1.366-2.241-1.366,0-1.576,1.067-1.576,2.17v4.19H4.483V4.223H7V5.377h.037A2.761,2.761,0,0,1,9.527,4.011c2.66,0,3.149,1.751,3.149,4.026v4.649Z" transform="translate(8.474 8.513)"/></g></g></svg>