<svg xmlns="http://www.w3.org/2000/svg" xmlns:xlink="http://www.w3.org/1999/xlink" width="28" height="28" viewBox="0 0 28 28"><defs><clipPath id="a"><rect width="24" height="24" transform="translate(-4945 2799)" fill="#fff" stroke="#707070" stroke-width="1"/></clipPath></defs><g transform="translate(4913 -2720)"><circle cx="14" cy="14" r="14" transform="translate(-4913 2720)" fill="#d5d5d5"/><g transform="translate(34 -77)" clip-path="url(#a)"><path d="M14.008,5.956a1.663,1.663,0,0,0-1.17-1.178A39.3,39.3,0,0,0,7.667,4.5,39.3,39.3,0,0,0,2.5,4.778a1.663,1.663,0,0,0-1.17,1.178A17.445,17.445,0,0,0,1.05,9.162a17.445,17.445,0,0,0,.277,3.206A1.638,1.638,0,0,0,2.5,13.527a39.3,39.3,0,0,0,5.171.278,39.3,39.3,0,0,0,5.171-.278,1.638,1.638,0,0,0,1.17-1.159,17.445,17.445,0,0,0,.277-3.206A17.445,17.445,0,0,0,14.008,5.956ZM6.314,11.13V7.194L9.773,9.162,6.314,11.13Z" transform="translate(-4940.667 2801.847)"/></g></g></svg>