<svg id="Component_22_1" data-name="Component 22 – 1" xmlns="http://www.w3.org/2000/svg" xmlns:xlink="http://www.w3.org/1999/xlink" width="60" height="60" viewBox="0 0 60 60">
  <defs>
    <clipPath id="clip-path">
      <rect id="Rectangle_145" data-name="Rectangle 145" width="60" height="60" transform="translate(-10296 5621)" fill="#fff" stroke="#707070" stroke-width="1"/>
    </clipPath>
  </defs>
  <g id="Mask_Group_14" data-name="Mask Group 14" transform="translate(10296 -5621)" clip-path="url(#clip-path)">
    <g id="badge" transform="translate(-10284.752 5627.343)">
      <g id="Group_431" data-name="Group 431" transform="translate(0 0)">
        <path id="Path_9221" data-name="Path 9221" d="M89.977,19.428a3.656,3.656,0,0,0-.421-4.545,2.284,2.284,0,0,1-.584-2.053,3.656,3.656,0,0,0-2.034-4.086,2.284,2.284,0,0,1-1.287-1.7,3.656,3.656,0,0,0-3.373-3.075,2.284,2.284,0,0,1-1.815-1.124,3.657,3.657,0,0,0-4.256-1.649A2.284,2.284,0,0,1,74.108.8a3.657,3.657,0,0,0-4.564,0,2.284,2.284,0,0,1-2.1.392,3.657,3.657,0,0,0-4.256,1.649,2.284,2.284,0,0,1-1.815,1.124A3.657,3.657,0,0,0,58,7.04a2.284,2.284,0,0,1-1.287,1.7A3.657,3.657,0,0,0,54.68,12.83a2.284,2.284,0,0,1-.584,2.053,3.657,3.657,0,0,0-.421,4.545,2.284,2.284,0,0,1,.2,2.126,3.657,3.657,0,0,0,1.249,4.39,2.284,2.284,0,0,1,.952,1.911A3.657,3.657,0,0,0,58.823,31.5a2.283,2.283,0,0,1,1.221.8l-3.819,9.219a1.653,1.653,0,0,0,2.012,2.212l4.181-1.283a.267.267,0,0,1,.314.13l2.049,3.863a1.653,1.653,0,0,0,2.987-.142l3.98-9.609q.078,0,.157,0l3.98,9.609a1.653,1.653,0,0,0,2.987.142l2.049-3.864a.267.267,0,0,1,.314-.13l4.181,1.283a1.653,1.653,0,0,0,2.012-2.212l-3.819-9.219a2.283,2.283,0,0,1,1.221-.8,3.657,3.657,0,0,0,2.751-3.642,2.284,2.284,0,0,1,.952-1.911,3.657,3.657,0,0,0,1.249-4.39,2.286,2.286,0,0,1,.2-2.126ZM66.487,45.764a.266.266,0,0,1-.482.023l-2.049-3.863a1.655,1.655,0,0,0-1.945-.806L57.831,42.4a.266.266,0,0,1-.325-.357l3.388-8.179a3.655,3.655,0,0,0,3.387,1.474,2.285,2.285,0,0,1,1.991.771,3.643,3.643,0,0,0,3.745,1.132ZM85.822,42.4l-4.181-1.283a1.655,1.655,0,0,0-1.945.806l-2.049,3.863a.266.266,0,0,1-.482-.023l-3.53-8.521a3.654,3.654,0,0,0,3.745-1.134,2.284,2.284,0,0,1,1.991-.771,3.653,3.653,0,0,0,3.387-1.473l3.388,8.179a.266.266,0,0,1-.325.357Zm2.995-23.73a3.669,3.669,0,0,0-.316,3.415,2.276,2.276,0,0,1-.778,2.733,3.669,3.669,0,0,0-1.529,3.07,2.276,2.276,0,0,1-1.712,2.267,3.669,3.669,0,0,0-2.266,1.731l0,.007a3.67,3.67,0,0,0-.265.572,2.275,2.275,0,0,1-2.416,1.5,3.669,3.669,0,0,0-3.2,1.239,2.277,2.277,0,0,1-2.793.522,3.667,3.667,0,0,0-1.008-.355l-.009,0a3.666,3.666,0,0,0-1.4,0h0a3.673,3.673,0,0,0-1.011.356,2.276,2.276,0,0,1-2.793-.522,3.669,3.669,0,0,0-3.2-1.239,2.276,2.276,0,0,1-2.416-1.5,3.675,3.675,0,0,0-.264-.572l0-.009a3.669,3.669,0,0,0-2.265-1.73,2.276,2.276,0,0,1-1.712-2.267,3.67,3.67,0,0,0-1.529-3.07,2.276,2.276,0,0,1-.778-2.733,3.669,3.669,0,0,0-.316-3.415,2.276,2.276,0,0,1,.262-2.829,3.67,3.67,0,0,0,.939-3.3A2.276,2.276,0,0,1,57.3,10,3.67,3.67,0,0,0,59.37,7.262a2.276,2.276,0,0,1,2.1-1.914,3.669,3.669,0,0,0,2.916-1.805,2.277,2.277,0,0,1,2.649-1.026,3.669,3.669,0,0,0,3.371-.63,2.276,2.276,0,0,1,2.841,0,3.669,3.669,0,0,0,3.371.63,2.276,2.276,0,0,1,2.649,1.026,3.67,3.67,0,0,0,2.916,1.805,2.276,2.276,0,0,1,2.1,1.914A3.67,3.67,0,0,0,86.35,10a2.276,2.276,0,0,1,1.266,2.543,3.669,3.669,0,0,0,.939,3.3A2.277,2.277,0,0,1,88.817,18.67Z" transform="translate(-53.074 -0.001)" fill="#fff"/>
        <path id="Path_9222" data-name="Path 9222" d="M107.975,65.428a.693.693,0,0,0,.772-.6,12.45,12.45,0,0,1,24.709.006.693.693,0,0,0,1.376-.169,13.836,13.836,0,0,0-27.461-.006A.693.693,0,0,0,107.975,65.428Z" transform="translate(-102.349 -47.673)" fill="#fff"/>
        <path id="Path_9223" data-name="Path 9223" d="M134.227,212.209a.694.694,0,0,0-.772.6,12.45,12.45,0,0,1-24.709.005.693.693,0,1,0-1.376.169,13.836,13.836,0,0,0,27.461-.006A.693.693,0,0,0,134.227,212.209Z" transform="translate(-102.347 -192.595)" fill="#fff"/>
        <path id="Path_9224" data-name="Path 9224" d="M169.013,101.451a1.329,1.329,0,0,0-1.228-.926l-5.434-.195-1.865-5.108a1.341,1.341,0,0,0-2.52,0L156.1,100.33l-5.434.195a1.341,1.341,0,0,0-.779,2.4l4.281,3.352-1.494,5.228a1.341,1.341,0,0,0,2.039,1.481l4.511-3.036,4.511,3.036a1.341,1.341,0,0,0,2.039-1.481l-1.494-5.228,4.281-3.352a1.329,1.329,0,0,0,.449-1.471Zm-5.608,3.749a1.336,1.336,0,0,0-.463,1.425l1.468,5.139-4.434-2.985a1.336,1.336,0,0,0-1.5,0l-4.434,2.985,1.468-5.139a1.336,1.336,0,0,0-.463-1.425l-4.209-3.295,5.342-.192a1.336,1.336,0,0,0,1.212-.881l1.833-5.021,1.833,5.021a1.336,1.336,0,0,0,1.212.88l5.342.192Z" transform="translate(-140.475 -85.623)" fill="#fff"/>
      </g>
    </g>
  </g>
</svg>
