<svg id="Component_24_1" data-name="Component 24 – 1" xmlns="http://www.w3.org/2000/svg" xmlns:xlink="http://www.w3.org/1999/xlink" width="60" height="60" viewBox="0 0 60 60">
  <defs>
    <clipPath id="clip-path">
      <rect id="Rectangle_152" data-name="Rectangle 152" width="60" height="60" transform="translate(-10154 5621)" fill="#fff" stroke="#707070" stroke-width="1"/>
    </clipPath>
  </defs>
  <g id="Mask_Group_12" data-name="Mask Group 12" transform="translate(10154 -5621)" clip-path="url(#clip-path)">
    <g id="racing-car" transform="translate(-10139.387 5627.344)">
      <path id="Path_9225" data-name="Path 9225" d="M119.579,10.311a.693.693,0,0,0,.693-.693V8.455a2.267,2.267,0,0,0-2.264-2.264h-2.68a2.267,2.267,0,0,0-2.264,2.264v.437h-2.07V8.241a6.242,6.242,0,0,0-.189-1.526l-.482-1.91h4.266a1.619,1.619,0,0,0,1.617-1.617V1.617A1.619,1.619,0,0,0,114.589,0H95.183a1.619,1.619,0,0,0-1.617,1.617V3.188a1.619,1.619,0,0,0,1.617,1.617h4.266l-.482,1.91a6.245,6.245,0,0,0-.189,1.526v.652h-2.07V8.455a2.267,2.267,0,0,0-2.264-2.264h-2.68A2.267,2.267,0,0,0,89.5,8.455v5.36a2.267,2.267,0,0,0,2.264,2.264h2.68a2.267,2.267,0,0,0,2.264-2.264v-.437h2.07v1.581a.69.69,0,0,1-.12.39l-4.016,5.9a2.071,2.071,0,0,0-.36,1.17v5.461a2.092,2.092,0,0,0,.994,1.774l3.271,2a.7.7,0,0,1,.331.591V33.77H96.708v-.436a2.267,2.267,0,0,0-2.264-2.264h-2.68A2.267,2.267,0,0,0,89.5,33.334v5.36a2.267,2.267,0,0,0,2.264,2.264h2.68a2.267,2.267,0,0,0,2.264-2.264v-.437h2.171v4.087h-1.3a3.469,3.469,0,0,0-3.465,3.465v.257a1.249,1.249,0,0,0,1.248,1.248h19.049a1.249,1.249,0,0,0,1.248-1.248v-.257a3.469,3.469,0,0,0-3.465-3.465h-1.3V38.257h2.171v.437a2.267,2.267,0,0,0,2.264,2.264h2.68a2.267,2.267,0,0,0,2.264-2.264v-5.36a2.267,2.267,0,0,0-2.264-2.264h-2.68a2.267,2.267,0,0,0-2.264,2.264v.436h-2.171V32.247a.7.7,0,0,1,.331-.591l3.271-2a2.092,2.092,0,0,0,.994-1.774V22.42a2.072,2.072,0,0,0-.36-1.17l-4.016-5.9a.69.69,0,0,1-.12-.39V13.378h2.07v.437a2.267,2.267,0,0,0,2.264,2.264h2.68a2.267,2.267,0,0,0,2.264-2.264v-.963a.693.693,0,0,0-1.386,0v.963a.879.879,0,0,1-.878.878h-2.68a.879.879,0,0,1-.878-.878V8.455a.879.879,0,0,1,.878-.878h2.68a.879.879,0,0,1,.878.878V9.618a.693.693,0,0,0,.693.693Zm-24.257,3.5a.879.879,0,0,1-.878.878h-2.68a.879.879,0,0,1-.878-.878V8.455a.879.879,0,0,1,.878-.878h2.68a.879.879,0,0,1,.878.878Zm0,24.878a.879.879,0,0,1-.878.878h-2.68a.879.879,0,0,1-.878-.878v-5.36a.879.879,0,0,1,.878-.878h2.68a.879.879,0,0,1,.878.878Zm19.129-5.36a.879.879,0,0,1,.878-.878h2.68a.879.879,0,0,1,.878.878v5.36a.879.879,0,0,1-.878.878h-2.68a.879.879,0,0,1-.878-.878Zm.139-31.948a.231.231,0,0,1,.231.231V3.188a.231.231,0,0,1-.231.231h-4.616l-.255-1.011a3.186,3.186,0,0,0-.461-1.022ZM95.183,3.419a.231.231,0,0,1-.231-.231V1.617a.231.231,0,0,1,.231-.231h5.332a3.186,3.186,0,0,0-.461,1.022L99.8,3.419Zm1.525,8.573V10.279h2.07v1.713ZM95.668,22.42a.69.69,0,0,1,.12-.39l4.016-5.9a2.071,2.071,0,0,0,.36-1.17V8.241a4.852,4.852,0,0,1,.147-1.187L101.4,2.747a1.8,1.8,0,0,1,1.747-1.361h3.481a1.8,1.8,0,0,1,1.747,1.361l1.086,4.307a4.853,4.853,0,0,1,.147,1.187v6.719a2.072,2.072,0,0,0,.36,1.17l.863,1.269-3.488,1.85a3.9,3.9,0,0,0-6.36,3.03v.343l-5.315,2.818Zm11.735-.142V27.6a.046.046,0,0,1-.046.046h-4.942a.046.046,0,0,1-.046-.046V22.278a2.517,2.517,0,1,1,5.034,0Zm-11.735,5.6v-.873l5.315-2.818v1.9L96.241,28.62a.866.866,0,0,1-.573-.739Zm1.04,8.99V35.156h2.171V36.87Zm15.485,6.859a2.082,2.082,0,0,1,2.079,2.079v.118H95.5v-.118a2.082,2.082,0,0,1,2.079-2.079Zm.871-8.574V36.87h-2.171V35.156Zm.92-13.126a.69.69,0,0,1,.12.39v5.461a.7.7,0,0,1-.331.591l-3.271,2a2.092,2.092,0,0,0-.994,1.774v10.1h-9.242v-10.1a2.092,2.092,0,0,0-.994-1.774l-1.657-1.014,3.372-1.8a1.433,1.433,0,0,0,1.429,1.368h4.942A1.434,1.434,0,0,0,108.79,27.6V23.506l4.55-2.424Zm-2.368-3.479.939,1.379-3.781,2.014a3.873,3.873,0,0,0-.509-1.616Zm1.448-6.559h-2.07V10.279h2.07Zm-6.006,18.426h-4.344a1.064,1.064,0,0,0-1.063,1.063V34.43a.693.693,0,0,0,1.386,0V31.8h3.7v7.768h-3.7V37.664a.693.693,0,0,0-1.386,0v2.231a1.064,1.064,0,0,0,1.063,1.063h4.344a1.064,1.064,0,0,0,1.063-1.063V31.48a1.064,1.064,0,0,0-1.063-1.063Z" transform="translate(-89.5)" fill="#fff"/>
    </g>
  </g>
</svg>
