<svg id="Component_23_1" data-name="Component 23 – 1" xmlns="http://www.w3.org/2000/svg" xmlns:xlink="http://www.w3.org/1999/xlink" width="60" height="60" viewBox="0 0 60 60">
  <defs>
    <clipPath id="clip-path">
      <rect id="Rectangle_151" data-name="Rectangle 151" width="60" height="60" transform="translate(-10226 5621)" fill="#fff" stroke="#707070" stroke-width="1"/>
    </clipPath>
  </defs>
  <g id="Mask_Group_13" data-name="Mask Group 13" transform="translate(10226 -5621)" clip-path="url(#clip-path)">
    <g id="trophy" transform="translate(-10217.152 5627.343)">
      <g id="Group_430" data-name="Group 430" transform="translate(0)">
        <g id="Group_429" data-name="Group 429">
          <path id="Path_9219" data-name="Path 9219" d="M69.374,8.227a2.3,2.3,0,0,0-2.3-2.1H61.1V5.241h.116A1.55,1.55,0,0,0,62.76,3.694V1.548A1.55,1.55,0,0,0,61.212,0H43.62a.693.693,0,0,0,0,1.386H61.212a.162.162,0,0,1,.162.162V3.694a.162.162,0,0,1-.162.162H35.3a.162.162,0,0,1-.162-.162V1.548a.162.162,0,0,1,.162-.162h5.071a.693.693,0,0,0,0-1.386H35.3a1.55,1.55,0,0,0-1.548,1.548V3.694A1.55,1.55,0,0,0,35.3,5.241h.116v.881H29.439a2.3,2.3,0,0,0-2.3,2.1,20.231,20.231,0,0,0,1.2,8.03A16.492,16.492,0,0,0,40.31,26.772a12.827,12.827,0,0,0,4,2.143l.349.576a7.171,7.171,0,0,1,1.008,3.721,7.415,7.415,0,0,1-.389,2.387L44.8,37.026H43.185a3,3,0,0,0-3,3v1.452H37.663a1.293,1.293,0,0,0-1.291,1.291v3.256a1.292,1.292,0,0,0,1.291,1.291H58.85a1.292,1.292,0,0,0,1.291-1.291V42.769a1.293,1.293,0,0,0-1.291-1.291H56.328V40.026a3,3,0,0,0-3-3H51.716L51.232,35.6a7.412,7.412,0,0,1-.39-2.387A7.171,7.171,0,0,1,51.85,29.49l.349-.576a12.826,12.826,0,0,0,4-2.143A16.492,16.492,0,0,0,68.17,16.257a20.231,20.231,0,0,0,1.2-8.03Zm-33.7,11.027a11.769,11.769,0,0,1-2.959-4.5,15.555,15.555,0,0,1-.915-4.012h3.618v5.952A12.846,12.846,0,0,0,35.673,19.254Zm-6.03-3.478A18.693,18.693,0,0,1,28.519,8.35a.919.919,0,0,1,.92-.842h5.977V9.357H31.741a1.334,1.334,0,0,0-1.328,1.459,16.967,16.967,0,0,0,1,4.43,12.861,12.861,0,0,0,4.971,6.348,12.844,12.844,0,0,0,1.752,3,14.9,14.9,0,0,1-8.5-8.817ZM58.755,42.864v3.065h-21V42.864Zm-5.427-4.452a1.615,1.615,0,0,1,1.613,1.614v1.452H41.571V40.026a1.615,1.615,0,0,1,1.613-1.614Zm-3.409-2.368.333.982H46.26l.333-.982a8.8,8.8,0,0,0,.463-2.832,8.647,8.647,0,0,0-.884-3.847,12.857,12.857,0,0,0,4.168,0,8.647,8.647,0,0,0-.884,3.847,8.8,8.8,0,0,0,.463,2.833Zm-1.663-7.9A11.467,11.467,0,0,1,36.8,16.695V5.241H59.71V16.695A11.466,11.466,0,0,1,48.256,28.148ZM66.87,15.776a14.9,14.9,0,0,1-8.5,8.817,12.847,12.847,0,0,0,1.755-3.005,12.68,12.68,0,0,0,4.5-5.239.693.693,0,0,0-1.253-.593,11.454,11.454,0,0,1-2.535,3.5A12.845,12.845,0,0,0,61.1,16.7V10.743h3.618a16.465,16.465,0,0,1-.341,2.1.693.693,0,0,0,1.351.311,17.9,17.9,0,0,0,.375-2.341,1.334,1.334,0,0,0-1.328-1.459H61.1V7.508h5.977a.919.919,0,0,1,.92.842,18.7,18.7,0,0,1-1.124,7.426Z" transform="translate(-27.103)" fill="#fff"/>
          <path id="Path_9220" data-name="Path 9220" d="M201.9,114.669l-1.987-.289a.266.266,0,0,1-.2-.145l-.889-1.8a1.652,1.652,0,0,0-2.962,0l-.889,1.8a.266.266,0,0,1-.2.145l-1.987.289a1.652,1.652,0,0,0-.916,2.818l1.438,1.4a.266.266,0,0,1,.076.235l-.34,1.979a1.652,1.652,0,0,0,2.4,1.741l1.777-.935a.265.265,0,0,1,.247,0l1.778.935a1.652,1.652,0,0,0,2.4-1.741l-.34-1.979a.265.265,0,0,1,.076-.235l1.438-1.4a1.652,1.652,0,0,0-.916-2.817Zm-.052,1.825-1.438,1.4a1.652,1.652,0,0,0-.475,1.462l.34,1.979a.266.266,0,0,1-.386.28l-1.778-.935a1.651,1.651,0,0,0-1.537,0l-1.777.935a.266.266,0,0,1-.386-.28l.34-1.979a1.651,1.651,0,0,0-.475-1.462l-1.438-1.4a.266.266,0,0,1,.147-.453l1.987-.289a1.652,1.652,0,0,0,1.244-.9l.889-1.8a.266.266,0,0,1,.476,0l.889,1.8a1.651,1.651,0,0,0,1.244.9l1.987.289a.266.266,0,0,1,.147.453Z" transform="translate(-176.194 -101.208)" fill="#fff"/>
        </g>
      </g>
    </g>
  </g>
</svg>
