<svg xmlns="http://www.w3.org/2000/svg" xmlns:xlink="http://www.w3.org/1999/xlink" width="24" height="24" viewBox="0 0 24 24"><defs><clipPath id="a"><rect width="24" height="24" transform="translate(-5012 2645)" fill="#fff" stroke="#707070" stroke-width="1"/></clipPath></defs><g transform="translate(5012 -2645)" clip-path="url(#a)"><path d="M12.257,32H1.471A1.471,1.471,0,0,0,0,33.471V44.257a1.471,1.471,0,0,0,1.471,1.471H5.676V41.061H3.746v-2.2h1.93V37.19a2.681,2.681,0,0,1,2.87-2.956,11.7,11.7,0,0,1,1.7.148v1.869H9.29a1.1,1.1,0,0,0-1.239,1.187v1.426h2.108l-.337,2.2H8.051v4.667h4.206a1.471,1.471,0,0,0,1.471-1.471V33.471A1.471,1.471,0,0,0,12.257,32Z" transform="translate(-5007 2618)"/></g></svg>