<svg xmlns="http://www.w3.org/2000/svg" xmlns:xlink="http://www.w3.org/1999/xlink" width="24" height="24" viewBox="0 0 24 24"><defs><clipPath id="a"><rect width="24" height="24" transform="translate(-4987 2645)" fill="#fff" stroke="#707070" stroke-width="1"/></clipPath></defs><g transform="translate(4987 -2645)" clip-path="url(#a)"><path d="M6.864,37.229A1.634,1.634,0,1,0,8.5,38.864,1.634,1.634,0,0,0,6.864,37.229Zm3.821-1.256a1.655,1.655,0,0,0-.932-.932,10.875,10.875,0,0,0-2.89-.2,10.793,10.793,0,0,0-2.89.2,1.655,1.655,0,0,0-.932.932,10.9,10.9,0,0,0-.2,2.89,10.853,10.853,0,0,0,.2,2.891,1.655,1.655,0,0,0,.932.932,10.876,10.876,0,0,0,2.89.2,10.79,10.79,0,0,0,2.89-.2,1.655,1.655,0,0,0,.932-.932,10.807,10.807,0,0,0,.2-2.89,10.813,10.813,0,0,0-.2-2.89Zm-3.821,5.4a2.51,2.51,0,1,1,1.778-.735,2.513,2.513,0,0,1-1.778.735ZM9.48,36.832a.583.583,0,1,1,.416-.171.586.586,0,0,1-.416.171ZM12.257,32H1.471A1.471,1.471,0,0,0,0,33.471V44.257a1.471,1.471,0,0,0,1.471,1.471H12.257a1.471,1.471,0,0,0,1.471-1.471V33.471A1.471,1.471,0,0,0,12.257,32Zm-.525,8.886a2.916,2.916,0,0,1-.792,2.053,2.917,2.917,0,0,1-2.053.792c-.809.046-3.236.046-4.045,0a2.921,2.921,0,0,1-2.053-.792A2.907,2.907,0,0,1,2,40.886c-.046-.81-.046-3.236,0-4.045a2.906,2.906,0,0,1,.792-2.053A2.922,2.922,0,0,1,4.842,34c.809-.046,3.236-.046,4.045,0a2.917,2.917,0,0,1,2.053.792,2.917,2.917,0,0,1,.792,2.055C11.778,37.652,11.778,40.076,11.732,40.886Z" transform="translate(-4981.864 2618)"/></g></svg>