<svg xmlns="http://www.w3.org/2000/svg" xmlns:xlink="http://www.w3.org/1999/xlink" width="24" height="24" viewBox="0 0 24 24"><defs><clipPath id="a"><rect width="24" height="24" transform="translate(-4957 2645)" fill="#fff" stroke="#707070" stroke-width="1"/></clipPath></defs><g transform="translate(4957 -2645)" clip-path="url(#a)"><path d="M12.747,32H.977A.985.985,0,0,0,0,32.99V44.738a.985.985,0,0,0,.977.99h11.77a.987.987,0,0,0,.981-.99V32.99A.987.987,0,0,0,12.747,32Zm-8.6,11.767H2.114V37.215H4.152v6.551ZM3.132,36.321a1.18,1.18,0,1,1,1.18-1.18A1.18,1.18,0,0,1,3.132,36.321Zm8.644,7.446H9.741V40.58c0-.76-.015-1.737-1.057-1.737-1.06,0-1.223.827-1.223,1.682v3.242H5.427V37.215H7.379v.895h.028a2.143,2.143,0,0,1,1.927-1.057c2.059,0,2.442,1.357,2.442,3.122Z" transform="translate(-4951.864 2618)"/></g></svg>