<svg id="Component_38_1" data-name="Component 38 – 1" xmlns="http://www.w3.org/2000/svg" width="68" height="68" viewBox="0 0 68 68">
  <rect id="Rectangle_169" data-name="Rectangle 169" width="68" height="68" fill="#f43534"/>
  <path id="Icon_awesome-arrow-right" data-name="Icon awesome-arrow-right" d="M6.738,3.682,7.524,2.9a.845.845,0,0,1,1.2,0L15.6,9.769a.845.845,0,0,1,0,1.2L8.723,17.845a.845.845,0,0,1-1.2,0l-.785-.785a.85.85,0,0,1,.014-1.213l4.262-4.061H.849A.847.847,0,0,1,0,10.937V9.8a.847.847,0,0,1,.849-.849H11.015L6.753,4.9A.844.844,0,0,1,6.738,3.682Z" transform="translate(23.332 41.925) rotate(-90)" fill="#fff"/>
</svg>
