<svg xmlns="http://www.w3.org/2000/svg" xmlns:xlink="http://www.w3.org/1999/xlink" width="28" height="28" viewBox="0 0 28 28"><defs><clipPath id="a"><rect width="24" height="24" transform="translate(-4945 2722)" fill="#fff" stroke="#707070" stroke-width="1"/></clipPath></defs><g transform="translate(4947 -2720)"><circle cx="14" cy="14" r="14" transform="translate(-4947 2720)" fill="#d5d5d5"/><g clip-path="url(#a)"><path d="M11.373,50.648c.008.113.008.225.008.338a7.341,7.341,0,0,1-7.392,7.392A7.341,7.341,0,0,1,0,57.211a5.375,5.375,0,0,0,.627.032,5.2,5.2,0,0,0,3.225-1.11,2.6,2.6,0,0,1-2.429-1.8,3.276,3.276,0,0,0,.491.04,2.748,2.748,0,0,0,.684-.088,2.6,2.6,0,0,1-2.083-2.55V51.7a2.616,2.616,0,0,0,1.174.33,2.6,2.6,0,0,1-.8-3.475,7.384,7.384,0,0,0,5.357,2.719,2.933,2.933,0,0,1-.064-.6,2.6,2.6,0,0,1,4.5-1.778,5.115,5.115,0,0,0,1.649-.627,2.591,2.591,0,0,1-1.142,1.432,5.208,5.208,0,0,0,1.5-.4A5.584,5.584,0,0,1,11.373,50.648Z" transform="translate(-4939.338 2680.769)"/></g></g></svg>