<svg id="Layer_1" data-name="Layer 1" xmlns="http://www.w3.org/2000/svg" viewBox="0 0 60 60"><defs><style>.cls-1{fill:none;}.cls-2{fill:#fff;}</style></defs><rect class="cls-1" width="60" height="60"/><path class="cls-2" d="M55.43,41.35a6.47,6.47,0,0,0-4.16-5.08.17.17,0,0,1-.13-.2V34.52c0-.13,0-.15.16-.15H54a.74.74,0,0,0,.78-1c-.25-1-.5-2-.76-3a5,5,0,0,0-3.3-3.63A12.48,12.48,0,0,0,49,26.3L43,25.05a.38.38,0,0,1-.25-.17q-3.48-5.22-7-10.44a1.18,1.18,0,0,0-.75-.52L23,11.08a.87.87,0,0,0-.86.22L15.74,17a.77.77,0,0,0-.2,1.07l2.51,5,1.28,2.56H9a2.07,2.07,0,0,0-1.46.56,6.11,6.11,0,0,0-1.31,1.93A24.3,24.3,0,0,0,4.51,33.4c-.14.6.18,1,.8,1h5.56c.13,0,.17,0,.16.15V36a.21.21,0,0,1-.16.24,6.54,6.54,0,0,0,3.36,12.58,6.34,6.34,0,0,0,5.15-4.23,5.9,5.9,0,0,0,.37-2.79c0-.15,0-.18.16-.18q1.1,0,2.19,0a.2.2,0,0,1,.22.14c.14.3.29.59.44.89a.75.75,0,0,0,.71.43H38.71a.72.72,0,0,0,.73-.52c.09-.26.18-.52.26-.79a.17.17,0,0,1,.2-.15q1.18,0,2.37,0c.13,0,.17,0,.15.16a6.12,6.12,0,0,0,.15,2.09,6.56,6.56,0,0,0,12.86-2.56ZM17.1,17.91c-.06-.12,0-.17.06-.25l5.6-5a.29.29,0,0,1,.3-.09l6.6,1.56,4.78,1.12a.49.49,0,0,1,.33.22c2,3,3.94,5.92,5.91,8.88l.13.21-1-.21L39,24.19a.74.74,0,0,0-.91.48c-.37.87-.75,1.74-1.12,2.62s-.67,1.56-1,2.33a1.06,1.06,0,0,0-.1.46c0,1.86,0,3.71,0,5.56,0,.15,0,.19-.18.19H26.24a.25.25,0,0,1-.26-.16c-.18-.39-.38-.77-.57-1.15,0,0-.06-.08,0-.15h.17c1.18,0,2.35,0,3.52,0a2.11,2.11,0,0,0,2.13-1.54c0-.05,0-.11,0-.14a1.09,1.09,0,0,0,.11-1.15A2.18,2.18,0,0,0,29.24,30q-2.08,0-4.17,0c-.15,0-.19,0-.19-.19,0-2.29,0-4.59,0-6.89a2.13,2.13,0,0,0-1.56-2.15,1.08,1.08,0,0,1-.24-.12.65.65,0,0,0-.74,0,2.75,2.75,0,0,1-.49.23,2,2,0,0,0-1.36,2v1.81c-.06,0-.07-.08-.09-.12Q18.77,21.23,17.1,17.91Zm7.64,15c-.07,0-.13,0-.17-.07l-.69-1.39h5.33a.73.73,0,1,1,0,1.46H24.74Zm-1.31-2.48s0,0,0,.09L22,27.71a.33.33,0,0,1,0-.17V22.71a.73.73,0,1,1,1.46,0ZM13.21,47.5a5.11,5.11,0,1,1,5.11-5.1A5.11,5.11,0,0,1,13.21,47.5ZM14,35.78c0,.07,0,.09-.1.09a4.91,4.91,0,0,0-1.27,0c-.09,0-.09,0-.09-.11V34.47c0-.08,0-.1.1-.1h1.26c.07,0,.1,0,.1.1ZM15.4,34.5c0-.12,0-.13.15-.13h2.93c.08,0,.13,0,.17.09L20,37.22a.23.23,0,0,0,0,.07H17.47a.37.37,0,0,1-.23-.07,6.26,6.26,0,0,0-1.71-1,.16.16,0,0,1-.13-.17Q15.42,35.3,15.4,34.5Zm6,5.7h-1.9c-.06,0-.12,0-.15-.07a6.19,6.19,0,0,0-.7-1.38h2a.13.13,0,0,1,.16.08c.22.45.45.89.67,1.34C21.48,40.22,21.45,40.2,21.42,40.2Zm17.22.2c-.13.38-.26.76-.38,1.14,0,.1-.07.13-.18.13q-7,0-14.07,0c-.13,0-.16-.06-.21-.15q-2-4-4-8.05a.91.91,0,0,0-.9-.56c-2.39,0-4.77,0-7.15,0H6.15A17,17,0,0,1,7.91,28a2.62,2.62,0,0,1,.24-.34,1.23,1.23,0,0,1,1.12-.56c3.53,0,7.07,0,10.61,0a.26.26,0,0,1,.27.17q1.62,3.27,3.25,6.52c.51,1,1,2,1.52,3a.81.81,0,0,0,.8.49H36.47a.74.74,0,0,0,.81-.81V30.33a.87.87,0,0,1,.07-.35c.59-1.36,1.17-2.73,1.75-4.09,0-.11.09-.17.24-.13,1.52.33,3.06.64,4.59,1l5.69,1.2a3.63,3.63,0,0,1,3,2.78c.18.69.34,1.38.52,2.07,0,.13,0,.14-.12.14H41.76a.77.77,0,0,0-.83.6C40.17,35.8,39.4,38.1,38.64,40.4Zm11-5.28v.64c0,.09,0,.12-.11.1a5.62,5.62,0,0,0-1.23,0c-.11,0-.12,0-.12-.11V34.49c0-.09,0-.12.12-.12h1.22c.11,0,.13,0,.12.13Zm-2.91,1a.16.16,0,0,1-.13.18,6.6,6.6,0,0,0-1.72,1,.26.26,0,0,1-.16.07H41.21c.26-.77.5-1.51.75-2.26.06-.17.12-.34.17-.52s.09-.14.2-.14h4.29c.11,0,.15,0,.15.14C46.76,35,46.76,35.56,46.77,36.08Zm-4,4.06c0,.08-.08.06-.13.06H40.24l.46-1.38a.09.09,0,0,1,.1-.07h2.7A6.25,6.25,0,0,0,42.8,40.14Zm6.14,7.36a5.11,5.11,0,1,1,5.12-5.1A5.1,5.1,0,0,1,48.94,47.5Z"/><path class="cls-2" d="M9.58,31.45a.73.73,0,1,1,0-1.45.73.73,0,0,1,0,1.45Z"/><path class="cls-2" d="M13.22,30.72a.73.73,0,0,1-.73.73.73.73,0,1,1,.73-.73Z"/><path class="cls-2" d="M16.13,30.72A.73.73,0,1,1,15.4,30,.72.72,0,0,1,16.13,30.72Z"/><path class="cls-2" d="M19.05,30.73a.72.72,0,0,1-.73.72.73.73,0,1,1,0-1.45A.73.73,0,0,1,19.05,30.73Z"/><path class="cls-2" d="M42.39,30a.73.73,0,1,1-.73.72A.73.73,0,0,1,42.39,30Z"/><path class="cls-2" d="M45.3,31.45a.73.73,0,1,1,.73-.72A.73.73,0,0,1,45.3,31.45Z"/><path class="cls-2" d="M48.22,31.45a.73.73,0,0,1-.73-.73.73.73,0,1,1,.73.73Z"/><path class="cls-2" d="M51.14,31.45a.73.73,0,0,1-.73-.73.73.73,0,0,1,.73-.72.73.73,0,0,1,.73.73A.73.73,0,0,1,51.14,31.45Z"/><path class="cls-2" d="M49.68,39.47a.73.73,0,0,1-.73.73.72.72,0,0,1-.73-.72.73.73,0,0,1,.73-.73A.73.73,0,0,1,49.68,39.47Z"/><path class="cls-2" d="M49.68,45.31a.73.73,0,1,1-.72-.73A.73.73,0,0,1,49.68,45.31Z"/><path class="cls-2" d="M52.2,40.93a.72.72,0,0,1-.72.73.73.73,0,1,1,0-1.46A.73.73,0,0,1,52.2,40.93Z"/><path class="cls-2" d="M45.7,43.85a.72.72,0,0,1,.73-.73.73.73,0,0,1,.73.73.75.75,0,0,1-.74.73A.73.73,0,0,1,45.7,43.85Z"/><path class="cls-2" d="M45.7,40.93a.71.71,0,0,1,.73-.72.73.73,0,1,1-.73.72Z"/><path class="cls-2" d="M52.2,43.85a.73.73,0,1,1-1.45,0,.73.73,0,1,1,1.45,0Z"/><path class="cls-2" d="M13.22,38.75a.73.73,0,0,1,.73.73.72.72,0,0,1-.73.72.73.73,0,0,1-.73-.73A.73.73,0,0,1,13.22,38.75Z"/><path class="cls-2" d="M14,45.3a.73.73,0,1,1-1.46,0,.73.73,0,0,1,1.46,0Z"/><path class="cls-2" d="M10,40.93a.72.72,0,0,1,.73-.73.73.73,0,0,1,0,1.46A.71.71,0,0,1,10,40.93Z"/><path class="cls-2" d="M10,43.85a.71.71,0,0,1,.72-.73.73.73,0,0,1,0,1.46A.72.72,0,0,1,10,43.85Z"/><path class="cls-2" d="M16.47,40.93a.72.72,0,0,1-.73.73.73.73,0,0,1-.73-.73.74.74,0,0,1,.74-.73A.73.73,0,0,1,16.47,40.93Z"/><path class="cls-2" d="M16.47,43.85a.73.73,0,0,1-1.46,0,.74.74,0,0,1,.73-.73A.73.73,0,0,1,16.47,43.85Z"/></svg>