<svg xmlns="http://www.w3.org/2000/svg" xmlns:xlink="http://www.w3.org/1999/xlink" width="24" height="24" viewBox="0 0 24 24"><defs><clipPath id="a"><rect width="24" height="24" transform="translate(-4927 2645)" fill="#fff" stroke="#707070" stroke-width="1"/></clipPath></defs><g transform="translate(4927 -2645)" clip-path="url(#a)"><path d="M31.318,65.841a2.1,2.1,0,0,0-1.48-1.489A49.692,49.692,0,0,0,23.3,64a49.692,49.692,0,0,0-6.538.352,2.1,2.1,0,0,0-1.48,1.489,23.676,23.676,0,0,0,0,8.108,2.071,2.071,0,0,0,1.48,1.465,49.692,49.692,0,0,0,6.538.352,49.692,49.692,0,0,0,6.538-.352,2.071,2.071,0,0,0,1.48-1.465,23.676,23.676,0,0,0,0-8.108Zm-9.729,6.542V67.407L25.963,69.9Z" transform="translate(-4938.301 2587)"/></g></svg>