<svg id="Component_4_2" data-name="Component 4 – 2" xmlns="http://www.w3.org/2000/svg" xmlns:xlink="http://www.w3.org/1999/xlink" width="36" height="36" viewBox="0 0 36 36">
  <defs>
    <clipPath id="clip-path">
      <rect id="Rectangle_139" data-name="Rectangle 139" width="36" height="36" transform="translate(-2074 -5132)" fill="#ececec" stroke="#707070" stroke-width="1"/>
    </clipPath>
  </defs>
  <g id="Mask_Group_89" data-name="Mask Group 89" transform="translate(2074 5132)" clip-path="url(#clip-path)">
    <path id="Path_4074" data-name="Path 4074" d="M5.58,5.58a1.125,1.125,0,0,1,1.591,0l8.2,8.2,8.2-8.2A1.125,1.125,0,1,1,25.17,7.17l-8.2,8.2,8.2,8.2A1.125,1.125,0,0,1,23.58,25.17l-8.2-8.2-8.2,8.2A1.125,1.125,0,1,1,5.58,23.58l8.2-8.2-8.2-8.2A1.125,1.125,0,0,1,5.58,5.58Z" transform="translate(-2071.75 -5129.75)" fill="#ececec" fill-rule="evenodd"/>
  </g>
</svg>
