<svg xmlns="http://www.w3.org/2000/svg" width="228.368" height="97.471" viewBox="0 0 228.368 97.471">
  <g id="Group_1832" data-name="Group 1832" transform="translate(722.242 -61.133)">
    <path id="Path_9233" data-name="Path 9233" d="M-285.454,105.383l-10.35,14.083h-6.176l-23.106,30.784h-8.933l-7.4,9.862h-18.86l5.243-5,.433-.411.458-.437h10.588l3.08-4.013,2.091-2.723.132-.17.021-.03h8.738l6.791-8.878.157-.2.042-.059.072-.1.089-.115,14.151-18.507,1.765-2.308.45-.585h4.535l.021-.03h1.553l4.026-5.311.7-.912,1.633-2.155,2.108-2.783Z" transform="translate(-208.42 -25.48)" fill="#d5d5d5"/>
    <path id="Path_9234" data-name="Path 9234" d="M-320.861,220.615" transform="translate(-231.119 -91.831)" fill="#d5d5d5"/>
    <path id="Path_9235" data-name="Path 9235" d="M-493.729,87.61l-1.633,2.155-2.282.912H-629.907a42.432,42.432,0,0,0-33.367-15.852c-23.089,0-41.808,17.85-41.808,39.874s18.72,39.878,41.808,39.878a42.5,42.5,0,0,0,32.688-15.021,39.73,39.73,0,0,0,4.072-5.85h72.155l-.458.437h-.433l-8.1,3.177-59.276-.5s-16.247,26.351-39.785,23.246-44.548-5.646-45.558-47.047,40.429-43.276,40.429-43.276,24.624-1.951,40.434,17.545l114.514.327Z" transform="translate(-8.21 -4.924)" fill="#d5d5d5"/>
    <path id="Path_9236" data-name="Path 9236" d="M-499.83,79.9l-2.108,2.783-1.633,2.155-.7.912H-638.116A42.432,42.432,0,0,0-671.483,69.9c-23.089,0-41.808,17.85-41.808,39.874s18.72,39.878,41.808,39.878A42.494,42.494,0,0,0-638.8,134.633a39.73,39.73,0,0,0,4.072-5.85h72.155l-.458.437-.433.411-5.243,5h-60.977A49.905,49.905,0,0,1-672.514,158.6c-27.466,0-49.728-21.82-49.728-48.735s22.262-48.735,49.728-48.735A49.993,49.993,0,0,1-633.3,79.9Z" transform="translate(0 0)" fill="#d5d5d5"/>
    <g id="Group_1823" data-name="Group 1823" transform="translate(-649.731 94.766)">
      <path id="Path_9237" data-name="Path 9237" d="M-550.386,154.217a3.665,3.665,0,0,1,1.41-1.74,3.809,3.809,0,0,1,2.144-.641h9.143a.94.94,0,0,0,.513-.184.941.941,0,0,0,.367-.4l2.528-6.211h-4.855l.9-2.235a3.887,3.887,0,0,1,.577-.971,3.717,3.717,0,0,1,.824-.751,4.011,4.011,0,0,1,1.017-.485,3.735,3.735,0,0,1,1.136-.174h7.127q-1.575,3.866-2.8,6.907-.532,1.283-1.035,2.529t-.9,2.217q-.394.972-.888,2.18a3.8,3.8,0,0,1-1.4,1.6,3.7,3.7,0,0,1-2.042.6H-551.3Z" transform="translate(551.302 -140.421)" fill="#d5d5d5"/>
    </g>
    <g id="Group_1824" data-name="Group 1824" transform="translate(-629.264 96.376)">
      <path id="Path_9238" data-name="Path 9238" d="M-499.03,144.556a2.118,2.118,0,0,1,1.17-.341h1.321l-2.674,6.534h3.964a.5.5,0,0,0,.288-.09.525.525,0,0,0,.194-.246l2.276-5.569a.987.987,0,0,1,.372-.456.984.984,0,0,1,.561-.173h2.1l-3.178,7.8a2.131,2.131,0,0,1-.808,1,2.156,2.156,0,0,1-1.227.372h-8.38q.9-2.213,1.6-3.944.3-.744.593-1.458t.519-1.269q.23-.555.5-1.248A2.168,2.168,0,0,1-499.03,144.556Z" transform="translate(503.052 -144.215)" fill="#d5d5d5"/>
      <path id="Path_9239" data-name="Path 9239" d="M-473.573,145.474a2.172,2.172,0,0,1,.8-.918,2.117,2.117,0,0,1,1.17-.341h8.4l-.525,1.28a2.136,2.136,0,0,1-.807.991,2.157,2.157,0,0,1-1.228.372h-5.234a.431.431,0,0,0-.257.078,1.282,1.282,0,0,0-.2.184c-.021.042-.084.2-.189.462-.049.112-.109.255-.178.43s-.157.39-.262.645-.229.554-.372.9-.306.741-.487,1.2h3.618a1.008,1.008,0,0,0,.566-.173.983.983,0,0,0,.378-.456,1.158,1.158,0,0,1,.047-.12c.017-.038.033-.075.047-.11h-1.688q.209-.524.362-.9t.257-.629a.983.983,0,0,1,.372-.467.985.985,0,0,1,.561-.173h3.786l-1.751,4.3a2.139,2.139,0,0,1-.8,1,2.148,2.148,0,0,1-1.232.372h-8.369q.9-2.213,1.6-3.954Z" transform="translate(487.932 -144.215)" fill="#d5d5d5"/>
      <path id="Path_9240" data-name="Path 9240" d="M-447.316,145.474a2.172,2.172,0,0,1,.8-.918,2.117,2.117,0,0,1,1.17-.341h8.4l-.524,1.28a2.136,2.136,0,0,1-.807.991,2.157,2.157,0,0,1-1.228.372h-5.234a.431.431,0,0,0-.257.078,1.3,1.3,0,0,0-.2.184c-.021.042-.084.2-.189.462-.049.112-.109.255-.178.43s-.157.39-.262.645-.229.554-.372.9-.306.741-.487,1.2h3.618a1.009,1.009,0,0,0,.566-.173.983.983,0,0,0,.378-.456,1.157,1.157,0,0,1,.047-.12c.017-.038.033-.075.047-.11h-1.688q.209-.524.362-.9t.257-.629a.978.978,0,0,1,.372-.467.984.984,0,0,1,.561-.173h3.786l-1.751,4.3a2.141,2.141,0,0,1-.8,1,2.148,2.148,0,0,1-1.232.372h-8.37q.9-2.213,1.6-3.954Z" transform="translate(472.813 -144.215)" fill="#d5d5d5"/>
      <path id="Path_9241" data-name="Path 9241" d="M-424.623,153.392q.272-.681.5-1.238l.514-1.264q.289-.708.593-1.452l.593-1.453q.288-.708.514-1.269t.509-1.243a2.173,2.173,0,0,1,.8-.918,2.115,2.115,0,0,1,1.169-.341h8.4l-.524,1.28a2.134,2.134,0,0,1-.808.991,2.156,2.156,0,0,1-1.227.372h-5.234a.512.512,0,0,0-.5.336l-.22.524h4.479l-.629,1.531a.988.988,0,0,1-.372.467,1.006,1.006,0,0,1-.572.173h-3.419a.512.512,0,0,0-.5.336l-.21.524h7.069l-.514,1.269a2.128,2.128,0,0,1-.808,1,2.156,2.156,0,0,1-1.227.372Z" transform="translate(457.892 -144.215)" fill="#d5d5d5"/>
      <path id="Path_9242" data-name="Path 9242" d="M-395.219,145.589a2.13,2.13,0,0,1,.808-1,2.158,2.158,0,0,1,1.227-.372h8.412l-2.108,5.181a2.129,2.129,0,0,1-.808,1,2.155,2.155,0,0,1-1.227.372h-.545l1.069,2.622h-2.832l-1.059-2.622h-2.192l-.818,1.993a.986.986,0,0,1-.372.456.985.985,0,0,1-.561.173h-2.14Zm1.825,2.517h3.954a.394.394,0,0,0,.215-.063.349.349,0,0,0,.142-.168l.409-1.007h-3.954a.371.371,0,0,0-.367.241Z" transform="translate(442.772 -144.215)" fill="#d5d5d5"/>
      <path id="Path_9243" data-name="Path 9243" d="M-372.106,153.392l3.178-7.824a2.241,2.241,0,0,1,.331-.556,2.133,2.133,0,0,1,.472-.43,2.186,2.186,0,0,1,.577-.272,2.153,2.153,0,0,1,.635-.095h8.4l-3.178,7.8a2.13,2.13,0,0,1-.807,1,2.156,2.156,0,0,1-1.227.372h-1.332l2.654-6.534h-4.048a.263.263,0,0,0-.262.178l-2.318,5.727a1,1,0,0,1-.367.456.959.959,0,0,1-.556.173h-2.15Z" transform="translate(427.652 -144.215)" fill="#d5d5d5"/>
      <path id="Path_9244" data-name="Path 9244" d="M-346.565,153.392l3.189-7.824a2.123,2.123,0,0,1,.8-.986,2.13,2.13,0,0,1,1.217-.367h8.391l-3.167,7.8a2.126,2.126,0,0,1-.808,1,2.155,2.155,0,0,1-1.227.372h-1.332l1.426-3.5h-4.248l-1.175,2.874a.99.99,0,0,1-.372.456,1,1,0,0,1-.572.173Zm9.167-5.674a.264.264,0,0,0,.262-.178l.283-.682H-340.9a.263.263,0,0,0-.262.178l-.283.682Z" transform="translate(412.945 -144.215)" fill="#d5d5d5"/>
      <path id="Path_9245" data-name="Path 9245" d="M-316.63,144.556a2.117,2.117,0,0,1,1.17-.341h1.321l-2.675,6.534h3.965a.5.5,0,0,0,.288-.09.523.523,0,0,0,.194-.246l2.276-5.569a.982.982,0,0,1,.372-.456.982.982,0,0,1,.561-.173h2.1l-3.178,7.8a2.13,2.13,0,0,1-.807,1,2.156,2.156,0,0,1-1.227.372h-8.38q.9-2.213,1.6-3.944.3-.744.593-1.458t.519-1.269q.23-.555.5-1.248A2.172,2.172,0,0,1-316.63,144.556Z" transform="translate(398.024 -144.215)" fill="#d5d5d5"/>
      <path id="Path_9246" data-name="Path 9246" d="M-288.386,146.869l.514-1.28a2.126,2.126,0,0,1,.807-1,2.16,2.16,0,0,1,1.228-.372h8.4l-.524,1.28a2.136,2.136,0,0,1-.8,1,2.151,2.151,0,0,1-1.232.372h-1.825l-2.1,5.15a2.128,2.128,0,0,1-.807,1,2.157,2.157,0,0,1-1.228.372H-287.3l2.654-6.524Z" transform="translate(379.445 -144.215)" fill="#d5d5d5"/>
    </g>
    <g id="Group_1825" data-name="Group 1825" transform="translate(-622.883 107.749)">
      <path id="Path_9247" data-name="Path 9247" d="M-488.01,179.863l3.069-7.532a2.052,2.052,0,0,1,.768-.949,2.052,2.052,0,0,1,1.171-.353h8.077l-3.049,7.512a2.049,2.049,0,0,1-.778.964,2.08,2.08,0,0,1-1.181.358h-1.282l1.373-3.372h-4.089l-1.131,2.767a.954.954,0,0,1-.358.439.963.963,0,0,1-.551.167Zm8.825-5.463a.253.253,0,0,0,.252-.171l.273-.656h-3.9a.253.253,0,0,0-.252.171l-.273.656Z" transform="translate(488.01 -171.028)" fill="#d5d5d5"/>
      <path id="Path_9248" data-name="Path 9248" d="M-463.4,179.863q.263-.657.48-1.192l.495-1.217.57-1.4.571-1.4q.277-.681.495-1.222t.49-1.2a2.09,2.09,0,0,1,.772-.884,2.036,2.036,0,0,1,1.125-.328h8.088l-.505,1.232a2.052,2.052,0,0,1-.778.954,2.074,2.074,0,0,1-1.181.359h-5.039a.492.492,0,0,0-.484.323l-1.393,3.423h6.805l-.495,1.222a2.045,2.045,0,0,1-.778.964,2.077,2.077,0,0,1-1.181.358Z" transform="translate(473.839 -171.028)" fill="#d5d5d5"/>
      <path id="Path_9249" data-name="Path 9249" d="M-435.417,172.351a2.049,2.049,0,0,1,.778-.964,2.078,2.078,0,0,1,1.181-.358h1.293l-3.049,7.512a2.05,2.05,0,0,1-.778.964,2.094,2.094,0,0,1-1.191.358h-1.293Z" transform="translate(459.488 -171.028)" fill="#d5d5d5"/>
      <path id="Path_9250" data-name="Path 9250" d="M-429.5,179.863l3.06-7.532a2.145,2.145,0,0,1,.318-.535,2.044,2.044,0,0,1,.454-.414,2.117,2.117,0,0,1,.555-.263,2.082,2.082,0,0,1,.611-.091h8.087l-3.059,7.512a2.047,2.047,0,0,1-.778.964,2.077,2.077,0,0,1-1.181.358h-1.282l2.554-6.29h-3.9a.253.253,0,0,0-.252.171l-2.232,5.513a.965.965,0,0,1-.353.439.923.923,0,0,1-.535.167h-2.07Z" transform="translate(454.321 -171.028)" fill="#d5d5d5"/>
      <path id="Path_9251" data-name="Path 9251" d="M-401.458,172.24a2.092,2.092,0,0,1,.772-.884,2.035,2.035,0,0,1,1.126-.328h8.088l-.5,1.232a2.057,2.057,0,0,1-.778.954,2.077,2.077,0,0,1-1.181.359h-5.039a.415.415,0,0,0-.247.076,1.206,1.206,0,0,0-.2.177c-.02.04-.081.188-.182.444q-.071.162-.171.414t-.253.621q-.151.368-.358.863t-.47,1.151h3.483a.972.972,0,0,0,.545-.166.943.943,0,0,0,.364-.439,1.175,1.175,0,0,1,.045-.116c.017-.037.032-.073.046-.106h-1.625q.2-.505.348-.868t.248-.606a.944.944,0,0,1,.358-.449.945.945,0,0,1,.54-.167h3.645l-1.686,4.14a2.06,2.06,0,0,1-.772.964,2.072,2.072,0,0,1-1.186.358h-8.058q.869-2.13,1.545-3.807Z" transform="translate(439.958 -171.028)" fill="#d5d5d5"/>
    </g>
    <g id="Group_1826" data-name="Group 1826" transform="translate(-640.504 107.41)">
      <path id="Path_9252" data-name="Path 9252" d="M-524.815,172.3a3.206,3.206,0,0,1,1.215-1.507,3.25,3.25,0,0,1,1.847-.561h12.659l-3.173,7.8a3.2,3.2,0,0,1-1.215,1.507,3.248,3.248,0,0,1-1.847.561h-.82l1.61,3.946H-518.8l-1.594-3.946h-3.3l-1.231,3a1.493,1.493,0,0,1-.56.687,1.483,1.483,0,0,1-.845.26h-3.22Zm2.747,3.788h5.951a.6.6,0,0,0,.323-.095.519.519,0,0,0,.213-.253l.616-1.515h-5.951a.557.557,0,0,0-.552.363Z" transform="translate(529.55 -170.228)" fill="#d5d5d5"/>
    </g>
    <path id="Path_9253" data-name="Path 9253" d="M-495.031,109.358l-.45.585-1.765,2.308h-126.2a31.824,31.824,0,0,0-1.807-2.893,33.444,33.444,0,0,0-9.646-9.175c-.259-.17-.522-.331-.789-.479-.526-.318-1.065-.619-1.616-.9-.39-.208-.785-.4-1.188-.585a33.719,33.719,0,0,0-14.384-3.2,33.716,33.716,0,0,0-15.085,3.534c-.356.174-.7.356-1.052.547q-1.444.783-2.8,1.7a32.771,32.771,0,0,0-3.682,2.885c-.2.174-.386.348-.573.53-.288.271-.568.547-.844.827a32.806,32.806,0,0,0-9.5,23.1,32.686,32.686,0,0,0,5.654,18.414,33.1,33.1,0,0,0,4.522,5.353,33.61,33.61,0,0,0,23.36,9.362,33.613,33.613,0,0,0,23.725-9.718,32.261,32.261,0,0,0,2.269-2.477l0,0a33.2,33.2,0,0,0,3.966-6.04,31.688,31.688,0,0,0,1.3-2.893h94.3l-.131.17-2.091,2.723h-90.942a35.748,35.748,0,0,1-32.4,20.4,35.513,35.513,0,0,1-35.73-35.293,35.127,35.127,0,0,1,15.3-28.96c.233-.161.467-.322.7-.471.174-.119.348-.233.526-.339.339-.216.678-.424,1.026-.628a35.915,35.915,0,0,1,18.169-4.9,35.844,35.844,0,0,1,17.633,4.594c.534.3,1.06.611,1.574.942a35.586,35.586,0,0,1,11.046,10.97Z" transform="translate(-19.37 -18.265)" fill="#d5d5d5"/>
    <g id="Group_1831" data-name="Group 1831" transform="translate(-696.47 80.439)">
      <g id="Group_1827" data-name="Group 1827" transform="translate(12.788 14.869)">
        <line id="Line_6352" data-name="Line 6352" y1="8.582" x2="6.206" transform="translate(0.205 0.149)" fill="#fff"/>
        <rect id="Rectangle_2213" data-name="Rectangle 2213" width="10.591" height="0.507" transform="matrix(0.586, -0.81, 0.81, 0.586, 0, 8.583)" fill="#d5d5d5"/>
      </g>
      <g id="Group_1828" data-name="Group 1828" transform="translate(30.19 14.912)">
        <line id="Line_6353" data-name="Line 6353" x1="6.206" y1="8.582" transform="translate(0.205 0.149)" fill="#fff"/>
        <rect id="Rectangle_2214" data-name="Rectangle 2214" width="0.507" height="10.591" transform="matrix(0.81, -0.586, 0.586, 0.81, 0, 0.297)" fill="#d5d5d5"/>
      </g>
      <path id="Path_9254" data-name="Path 9254" d="M-613.565,185.863h-.579l1.7,7.638h2.113Z" transform="translate(634.227 -152.259)" fill="#d5d5d5"/>
      <rect id="Rectangle_2215" data-name="Rectangle 2215" width="0.002" height="0.745" transform="translate(8.539 44.915)" fill="#d5d5d5"/>
      <rect id="Rectangle_2216" data-name="Rectangle 2216" width="0.002" height="1.624" transform="translate(8.539 47.682)" fill="#d5d5d5"/>
      <rect id="Rectangle_2217" data-name="Rectangle 2217" width="8.541" height="19.468" rx="4.27" transform="translate(0 39.391)" fill="#d5d5d5"/>
      <path id="Path_9255" data-name="Path 9255" d="M-628.183,163.655" transform="translate(642.31 -139.472)" fill="#d5d5d5"/>
      <path id="Path_9256" data-name="Path 9256" d="M-629.307,162.912" transform="translate(642.958 -139.044)" fill="#d5d5d5"/>
      <path id="Path_9257" data-name="Path 9257" d="M-622.186,164.95l-.01.016h0Z" transform="translate(638.864 -140.217)" fill="#d5d5d5"/>
      <path id="Path_9258" data-name="Path 9258" d="M-610.332,193.5h-2.112l-1.7-7.638h.579Z" transform="translate(634.227 -152.261)" fill="#d5d5d5"/>
      <rect id="Rectangle_2218" data-name="Rectangle 2218" width="8.542" height="19.467" rx="4.271" transform="translate(49.55 58.859) rotate(-180)" fill="#d5d5d5"/>
      <path id="Path_9259" data-name="Path 9259" d="M-597.779,185.866l-3.234,7.638,3.232-7.638Z" transform="translate(626.665 -152.261)" fill="#d5d5d5"/>
      <path id="Path_9260" data-name="Path 9260" d="M-577.987,163.655" transform="translate(613.407 -139.472)" fill="#d5d5d5"/>
      <path id="Path_9261" data-name="Path 9261" d="M-576.862,162.912" transform="translate(612.759 -139.044)" fill="#d5d5d5"/>
      <path id="Path_9262" data-name="Path 9262" d="M-584.3,164.483h0l-.243-.372Z" transform="translate(617.183 -139.734)" fill="#d5d5d5"/>
      <path id="Path_9263" data-name="Path 9263" d="M-597.2,185.866l-1.7,7.638h-2.112l3.232-7.638Z" transform="translate(626.665 -152.261)" fill="#d5d5d5"/>
      <path id="Path_9264" data-name="Path 9264" d="M-634.49,206.192l-6.866,4.842h0v-2.023h0l5.88-3.884Z" transform="translate(649.896 -163.352)" fill="#d5d5d5"/>
      <path id="Path_9265" data-name="Path 9265" d="M-574.134,209.012v2.023L-581,206.192l.985-1.064Z" transform="translate(615.142 -163.352)" fill="#d5d5d5"/>
      <path id="Path_9266" data-name="Path 9266" d="M-639.354,121.869l-.928,1.283-.058-.03-.079-.042-.132-.069-9.644-5.082v-2.7l1.441-.8v-2.8l-1.388-1.518-3.281-.729,1.329,1.283v1.812l-5.172,2.827v6.276l11.578,8.175v0l.417.295-.563.779v.744l-.4-.279v0l-.044-.031-12.564-8.868v-8.021l5.172-2.827v-.213l-4.855-4.69,9.2,2.043,2.134,2.334v4.333l-1.442.8v.825Z" transform="translate(659.961 -106.645)" fill="#d5d5d5"/>
      <path id="Path_9267" data-name="Path 9267" d="M-573.775,114.375V122.4l-12.564,8.868-.043.031v0l-.4.279v-.841l-.521-.711.053-.037h0l.322-.227v0l11.579-8.175v-6.276l-5.172-2.827v-1.812l1.329-1.283-3.281.729-1.388,1.518v2.8l1.441.8v2.7l-9.644,5.082-.132.069-.079.042-.052.027-.935-1.28,9.273-4.888v-.825l-1.442-.8v-4.333l2.134-2.334,9.2-2.043-4.855,4.69v.213Z" transform="translate(622.2 -106.645)" fill="#d5d5d5"/>
      <path id="Path_9268" data-name="Path 9268" d="M-597.779,185.863l-3.234,7.638h2.113l1.7-7.638Z" transform="translate(626.666 -152.259)" fill="#d5d5d5"/>
      <path id="Path_9269" data-name="Path 9269" d="M-608.884,172.224v-1.037l-.123-.073,0,0-4.96-2.933a3.343,3.343,0,0,1-.5-2.47V151.394l-.521-.711-5.022-6.869-.937-1.281h-8.335l-.929,1.284-4.986,6.9-.563.781v14.213a3.335,3.335,0,0,1-.5,2.47l-4.96,2.936-.123.073v1.037l5.588-3.8.292.666-5.88,3.883v2.023l6.867-4.841.984,1.755-7.851,4.709v1.7l.123-.063,11.64-6.059h8.942l11.637,6.057,0,0,.123.063v-1.7l-7.854-4.712.987-1.755,6.867,4.841v-2.02l-5.883-3.886.292-.666Zm-20.706-25.605h8.942V159.7h-8.942Zm-3.647,5.454.021-.032,2.707-4.051v11.684l-2.728,4.18Zm13.942,16.478H-626l-3.236-7.638,3.234,7.638h-4.946l-1.652-2.381,2.786-5.257h9.382l2.786,5.257Zm2.292-4.7-2.728-4.18V147.892l2.473,3.789,0,.005.245.371.008.016Z" transform="translate(649.894 -127.31)" fill="#d5d5d5"/>
      <g id="Group_1829" data-name="Group 1829" transform="translate(13.624 15.04)">
        <line id="Line_6354" data-name="Line 6354" y1="8.582" x2="6.206" transform="translate(0.205 0.149)" fill="#fff"/>
        <rect id="Rectangle_2219" data-name="Rectangle 2219" width="10.591" height="0.507" transform="matrix(0.586, -0.81, 0.81, 0.586, 0, 8.583)" fill="#d5d5d5"/>
      </g>
      <g id="Group_1830" data-name="Group 1830" transform="translate(29.353 15.084)">
        <line id="Line_6355" data-name="Line 6355" x1="6.206" y1="8.582" transform="translate(0.205 0.149)" fill="#fff"/>
        <rect id="Rectangle_2220" data-name="Rectangle 2220" width="0.507" height="10.591" transform="matrix(0.81, -0.586, 0.586, 0.81, 0, 0.297)" fill="#d5d5d5"/>
      </g>
      <path id="Path_9270" data-name="Path 9270" d="M-634.488,206.192l-.985-1.064-5.88,3.884v2.023Z" transform="translate(649.894 -163.352)" fill="#d5d5d5"/>
      <path id="Path_9271" data-name="Path 9271" d="M-581,206.192l.985-1.064,5.882,3.885v2.023Z" transform="translate(615.142 -163.352)" fill="#d5d5d5"/>
    </g>
  </g>
</svg>
