<svg xmlns="http://www.w3.org/2000/svg" width="974.2" height="128.6" viewBox="0 0 974.2 128.6">
  <path id="Features" d="M-431.7,0h-21.8q-15.8,0-24.4-8.4t-8.6-24.2V-96q0-15.8,8.6-24.2t24.4-8.4h21.8q15.6,0,24.3,8.5t8.7,24.1v9.4q0,4.4-4.4,4.4h-16.8q-4.2,0-4.2-4.4v-8.2q0-6.4-2.7-9.1t-9.1-2.7h-13.6q-6.2,0-8.9,2.7t-2.7,9.1v61q0,6.4,2.7,9.1t8.9,2.7h13.6q6.4,0,9.1-2.7t2.7-9.1V-42q0-4.4,4.2-4.4h16.8q4.4,0,4.4,4.4v9.4q0,15.6-8.7,24.1T-431.7,0Zm89.8-22h14.2q6.4,0,9.1-2.7t2.7-9.1v-61q0-6.4-2.7-9.1t-9.1-2.7h-14.2q-6.4,0-9,2.7t-2.6,9.1v61q0,6.4,2.6,9.1T-341.9-22Zm18.4,22h-22.4q-15.8,0-24.4-8.4t-8.6-24.2V-96q0-15.8,8.6-24.2t24.4-8.4h22.4q15.8,0,24.4,8.4t8.6,24.2v63.4q0,15.8-8.6,24.2T-323.5,0Zm77.8,0h-16.6q-4.2,0-4.2-4.2V-124.4q0-4.2,4.2-4.2h15q4.2,0,5.6,2.8L-201.3-50h.8v-74.4q0-4.2,4.2-4.2h16.6q4.2,0,4.2,4.2V-4.2q0,4.2-4.2,4.2h-14.6a6.689,6.689,0,0,1-6.4-4l-40-74.4h-.8V-4.2Q-241.5,0-245.7,0Zm136,0h-16.8q-4.4,0-4.4-4.2V-104.4a1.945,1.945,0,0,0-2.2-2.2h-22.8q-4.2,0-4.2-4.2v-13.6q0-4.2,4.2-4.2h75.6q4.2,0,4.2,4.2v13.6q0,4.2-4.2,4.2h-22.8q-2.4,0-2.4,2.2V-4.2Q-105.5,0-109.7,0Zm62.2,0H-66.7q-3.6,0-2.4-4.2l31.6-120.2a5.742,5.742,0,0,1,6-4.2H-4.9q5,0,6,4.2L32.7-4.2Q33.9,0,30.3,0H11.1a3.931,3.931,0,0,1-3-.9A6.829,6.829,0,0,1,6.9-4.2l-5.6-22h-39l-5.6,22A6.151,6.151,0,0,1-44.6-.9,3.977,3.977,0,0,1-47.5,0Zm29-104.4L-32.9-46.6H-3.3l-14.4-57.8ZM103.3,0H81.5Q65.7,0,57.1-8.4T48.5-32.6V-96q0-15.8,8.6-24.2t24.4-8.4h21.8q15.6,0,24.3,8.5T136.3-96v9.4q0,4.4-4.4,4.4H115.1q-4.2,0-4.2-4.4v-8.2q0-6.4-2.7-9.1t-9.1-2.7H85.5q-6.2,0-8.9,2.7t-2.7,9.1v61q0,6.4,2.7,9.1T85.5-22H99.1q6.4,0,9.1-2.7t2.7-9.1V-42q0-4.4,4.2-4.4h16.8q4.4,0,4.4,4.4v9.4q0,15.6-8.7,24.1T103.3,0Zm94.6,0H181.1q-4.4,0-4.4-4.2V-104.4a1.945,1.945,0,0,0-2.2-2.2H151.7q-4.2,0-4.2-4.2v-13.6q0-4.2,4.2-4.2h75.6q4.2,0,4.2,4.2v13.6q0,4.2-4.2,4.2H204.5q-2.4,0-2.4,2.2V-4.2Q202.1,0,197.9,0ZM356.5-128.6h16.8q4.4,0,4.4,4v92q0,15.6-8.7,24.1T344.7,0h-22q-15.8,0-24.4-8.4t-8.6-24.2v-91.8q0-4.2,4.2-4.2h17q4.2,0,4.2,4.2v90.6q0,6.4,2.7,9.1t8.9,2.7h13.8q6.4,0,9.1-2.7t2.7-9.1v-90.6Q352.3-128.6,356.5-128.6Zm43,95.8v-4q0-4.2,4.2-4.2h17q4.2,0,4.2,4.2v1.6q0,7.6,3,10.4t11,2.8h9.4q7.8,0,10.9-3t3.1-11.2v-2.4a10.027,10.027,0,0,0-4.7-8.9,24.77,24.77,0,0,0-11.7-3.7,126.444,126.444,0,0,1-15.1-2.3,97.656,97.656,0,0,1-15.1-4.4q-7-2.7-11.7-10.6t-4.7-20.3v-7q0-15.6,8.8-24.2t24.4-8.6h20q15.8,0,24.6,8.6t8.8,24.2V-92q0,4.2-4.2,4.2h-17q-4.2,0-4.2-4.2v-1.2q0-7.8-3-10.6t-11-2.8h-7.8q-8.2,0-11.1,3.1t-2.9,12.1v3.8q0,9.4,16.4,10.8A101.532,101.532,0,0,1,471.3-70q7,3,11.7,10.7t4.7,19.7v6.8q0,15.6-8.8,24.2T454.5,0H432.7q-15.6,0-24.4-8.6T399.5-32.8Z" transform="translate(486.5 128.6)" fill="#353535" opacity="0.65"/>
</svg>
